<?xml version="1.0" encoding="UTF-8"?>
<svg id="blueberries" xmlns="http://www.w3.org/2000/svg" viewBox="0 0 397.2 253.49">
  <defs>
    <style>.bb-1 {fill: #314d86;}.bb-2 {fill: #2a4071;}.bb-3 {fill: #344967;}.bb-4 {fill: #213452;}.bb-5 {fill: #248120;}.bb-6 {fill: #1b2c4f;}.bb-7 {fill: #5dc22a;}.bb-8 {fill: #21355e;}.bb-9 {fill: #203450;}.bb-10 {fill: #299a26;}.bb-11 {fill: #293a53;}</style>
  </defs>
  <g id="leafr">
    <path class="bb-10" d="m301.54,72.82s70.07-33.09,92.16,17.3c22.09,50.39-67.65,57.5-67.65,57.5l-25.04-39.99-1.71-2.74-3.62-5.79,5.87-26.28Z"/>
    <path class="bb-7" d="m301.53,105.11c6.32-.29,12.59-1.65,18.46-4,3.83-8.97,6.39-18.48,7.61-28.15,2.67,8.77,2.77,18.31.26,27.14,4.2-1.36,8.4-2.72,12.6-4.08,1.11-.36,2.25-.73,3.18-1.44.85-.65,1.47-1.54,2.06-2.42,3.7-5.54,6.74-11.51,9.04-17.76.72,6.88,1.2,14.6-3.26,19.89,11.21-1.03,22.5-1.21,33.74-.54-9.49.9-18.98,1.79-28.48,2.69,4.2,3.2,7.88,7.08,10.87,11.44-7.09-4.19-14.81-8.41-23.02-7.76-6.75.53-12.84,4.32-19.53,5.39,8.48,3.83,15.98,9.81,21.6,17.22-6.54-4.55-14.32-6.88-21.95-9.14-6.12-1.81-13-3.56-18.61-.52"/>
    <path class="bb-5" d="m306.58,93.78c-.28,1.62-.64,3.26-1.4,4.65-1.29,2.38-3.54,3.76-5.74,4.88-2.25,1.15-4.83,2.16-7.08,1.04-1.94-.96-3.15-3.3-3.74-5.69s-.67-4.89-1.07-7.33c3.53-4.56,7.36-8.8,11.43-12.68,2.13-2.03,3.71-6.33,5.83-7.72,3.32,5.79,2.89,16.28,1.78,22.85Z"/></g>
  <g id="leafl">
    <path class="bb-10" d="m84.12,172.4S4.64,194.87.15,144.12c-4.49-50.75,90.11-51.08,90.11-51.08l12.54,11.85-18.69,67.51Z"/>
    <path class="bb-7" d="m93.6,136.17c-6.32-.91-12.17,3.12-17.28,6.94-6.38,4.77-12.87,9.65-17.43,16.18,2.71-8.9,7.67-17.11,14.3-23.64-6.64,1.31-13.67-.13-20.19,1.71-7.92,2.24-13.71,8.87-18.9,15.25,1.29-5.12,3.4-10.04,6.23-14.5-9.21,2.45-18.43,4.89-27.64,7.34,10.31-4.52,20.96-8.26,31.84-11.18-6.01-3.41-8.24-10.83-9.95-17.53,4.32,5.06,9.25,9.61,14.64,13.53.86.63,1.76,1.25,2.77,1.56,1.12.35,2.31.3,3.48.25,4.41-.18,8.82-.36,13.24-.54-5.4-7.41-8.62-16.39-9.15-25.55,4.49,8.66,10.19,16.68,16.89,23.77,6.32.17,12.67-.73,18.7-2.64"/>
    <path class="bb-5" d="m5.26,160.29s36.33,15.14,75.07,1.51c38.84-13.67,2.54,14.97.52,10.91.13.84-17.21,5.02-34.95,4.27-17.99-.76-25.72-3.75-25.63-4.14-7.36-3.43-12.11-7.89-15.01-13.07"/>
    <path class="bb-5" d="m107.72,105.99c-2.71,1.77-6.23.95-8.93-.86-2.69-1.8-4.84-4.46-7.31-6.64-2.25-2-4.75-3.59-7.29-5.09-.29-.17-.58-.39-.85-.62,1.22.04,2.43.04,3.65.08.73.2,1.26.26,1.4.04.82.03,1.64.07,2.46.07.67,0,1.34-.06,2-.16.02.04.07.07.08.12.46,1.35,1.9,2.56,3.06,3.45,1.29.99,2.73,1.73,4.13,2.52,1.91,1.08,3.75,2.31,5.51,3.7,1.05.83,2.17,1.96,2.09,3.4Z"/></g>
  <g id="leafu">
    <path class="bb-10" d="m165.83,84.39l-63.03,20.49S36.4,50.57,83.4,25.48c47-25.08,82.93,31.25,82.93,31.25l-.5,27.66Z"/>
    <path class="bb-7" d="m151.45,94.24c-4-4.9-8.83-9.12-14.22-12.43-9.48,2.28-18.64,5.88-27.13,10.68,5.45-7.38,13.05-13.14,21.63-16.39-3.6-2.56-7.2-5.12-10.79-7.68-.95-.68-1.93-1.37-3.05-1.69-1.02-.29-2.11-.26-3.18-.21-6.65.33-13.26,1.46-19.65,3.33,5.09-4.68,11.01-9.67,17.91-9.24-7.51-8.38-14.39-17.34-20.55-26.76,6.38,7.08,12.76,14.17,19.14,21.25.07-5.28.98-10.55,2.7-15.55.86,8.19,2.08,16.9,7.5,23.1,4.45,5.1,11.13,7.73,15.97,12.46-1.98-9.09-1.66-18.68.94-27.61.25,7.96,3.02,15.59,5.76,23.07,2.19,5.99,4.9,12.56,10.68,15.25"/>
    <path class="bb-5" d="m170.83,60.81c1,5.97.46,12.1-.67,18.05-.63,3.29-1.46,6.62-3.25,9.46-2.5,3.98-6.66,6.65-11.01,8.42s-8.98,2.76-13.46,4.15c-6.19,1.92-12.13,4.63-18.39,6.35s-13.04,2.38-19.15.21c-.69-.25-1.41-.56-1.8-1.18-.38-.62-.35-1.4-.2-2.12.56-2.63,2.51-4.74,4.6-6.42,6.89-5.55,15.87-7.81,24.68-8.63s17.69-.34,26.5-1.14c-.32-.12-.63-.24-.95-.37,1.89-7.96,3.79-15.91,5.68-23.87.33-1.38.68-2.8,1.53-3.93,1.84-2.46,5.36-2.14,5.89,1.03Z"/></g>
  <g id="bbu">
    <path class="bb-6" d="m284.26,121.9c-27.26,27.25-71.64,27.43-99.12.4-27.48-27.03-27.66-71.03-.4-98.29,27.26-27.25,71.64-27.43,99.12-.4,27.48,27.03,27.66,71.03.4,98.29Z"/>
    <path class="bb-8" d="m281.77,109.22c-24.41,24.4-64.77,23.96-90.14-1-25.37-24.95-26.15-64.97-1.74-89.37,24.41-24.4,64.77-23.96,90.14,1,25.37,24.95,26.15,64.97,1.74,89.37Z"/>
    <path class="bb-2" d="m280.13,100.02c-22.3,22.29-59.43,21.62-82.94-1.51-23.51-23.12-24.49-59.94-2.19-82.23,22.3-22.29,59.43-21.62,82.94,1.51,23.51,23.12,24.49,59.94,2.19,82.23Z"/>
    <path class="bb-1" d="m182.25,60.69c-5.85-26.23,13.08-52.68,42.29-59.09,29.21-6.41,57.63,9.65,63.48,35.88,5.85,26.23-13.08,52.68-42.29,59.09-29.21,6.41-57.63-9.65-63.48-35.88Z"/>
    <path class="bb-4" d="m251.68,24.2c1.32,1.39,3.71-.09,5.46,1.45,1.23,1.09,1.58,3.18,1.18,4.75-1.16,4.48-8.46,4.47-8.73,7.41-.27,2.95,6.95,4.32,6.97,8.16.01,2.2-2.34,4.62-4.61,4.93-2.67.37-3.86-2.38-7.61-2.26-.92.03-2.61.08-3.79,1.16-2.92,2.67.83,8.33-1.61,10.82-1.93,1.97-7.14,1.31-10.25-1.27-4.57-3.79-.98-11.54-5.83-12.26-3.45-.51-9.69,4.28-13.72-1.09-2-2.67-1.66-8.02.94-11.47,3.17-4.21,11.76-.8,11.04-6.43-.99-7.74-.65-12.81,5.89-12.8,4.29,0,7.75,6.55,14.89,5.84,4.8-.48,8.04-4.64,9.4-3.48,1.26,1.07-1.32,4.79.36,6.55Z"/>
    <path class="bb-3" d="m242.88,41.33c-3.01,2.82-8.19,4.94-13.2,3-4.13-1.6-8.33-6.03-7.48-10.62.94-5.07,7.41-6.91,8.56-7.24,5.85-1.67,14.39-.12,16.05,5.01,1.49,4.64-3.51,9.46-3.92,9.84Z"/>
    <path class="bb-9" d="m234.6,38.1c-1.97.06-4.27-1.37-4.31-3.26-.03-1.64,1.64-2.87,2.96-3.29,2.21-.7,5.23.36,5.63,2.27.39,1.9-1.88,4.2-4.28,4.28Z"/>
    <path class="bb-11" d="m227.68,27.59c5.32-2.04,11.27-3.39,15.69-.23,3.64,2.6,5.49,7.1,4.66,7.84-1.16,1.04-6.22-6.44-12.91-5.85-6.57.59-9.78,9.3-11.37,7.74s-2.24-7.14,3.93-9.52Z"/></g>
  <g id="bbl">
    <path class="bb-6" d="m238.72,161.89c0,42.89-34.77,77.66-77.66,77.66s-77.66-34.77-77.66-77.66,34.77-77.66,77.66-77.66,77.66,34.77,77.66,77.66Z"/>
    <path class="bb-8" d="m226.79,153.77c0,38.41-32.1,69.54-71.7,69.54s-71.7-31.14-71.7-69.54,32.1-69.54,71.7-69.54,71.7,31.14,71.7,69.54Z"/>
    <path class="bb-2" d="m218.26,147.76c0,35.09-29.74,63.53-66.43,63.53s-66.43-28.44-66.43-63.53,29.74-63.53,66.43-63.53,66.43,28.44,66.43,63.53Z"/>
    <path class="bb-1" d="m110.3,192.93c-25.24-16.24-31.17-52-13.24-79.88,17.93-27.88,52.93-37.31,78.18-21.07,25.24,16.24,31.17,52,13.24,79.88-17.93,27.88-52.93,37.31-78.18,21.07Z"/>
    <path class="bb-4" d="m136.21,109.81c2.13.07,2.85-2.97,5.44-3.11,1.82-.1,3.75,1.29,4.66,2.85,2.61,4.46-3.13,10.15-1.04,12.68,2.11,2.55,8.87-2,11.91,1.04,1.74,1.74,1.8,5.49.26,7.51-1.81,2.37-4.91,1.13-7.77,4.14-.7.74-1.99,2.1-2.07,3.88-.2,4.4,7.21,5.96,7.25,9.84.03,3.07-4.58,6.61-9.06,6.99-6.58.56-9.86-8.39-14.24-5.18-3.11,2.28-4.25,10.96-11.65,9.84-3.67-.56-7.61-5.07-8.28-9.84-.82-5.82,8.62-9.81,3.62-13.72-6.86-5.37-10.59-9.65-5.44-14.76,3.38-3.34,11.25-.85,16.31-6.99,3.4-4.12,2.68-9.95,4.66-10.1,1.83-.13,2.73,4.83,5.44,4.92Z"/>
    <path class="bb-3" d="m142.77,130.26c-.14,4.59-2.56,10.31-8.03,12.68-4.51,1.96-11.3,1.71-14.24-2.59-3.24-4.75.39-11.27,1.04-12.43,3.29-5.9,11.23-11.33,16.57-8.54,4.82,2.51,4.68,10.24,4.66,10.87Z"/>
    <path class="bb-9" d="m133.72,134.16c-1.5,1.59-4.44,2.24-5.95.78-1.31-1.27-.97-3.56-.26-4.92,1.19-2.28,4.4-3.8,6.21-2.59,1.8,1.2,1.83,4.8,0,6.73Z"/>
    <path class="bb-11" d="m120,131.22c2.57-5.77,6.19-11.48,12.17-12.43,4.91-.78,9.9,1.35,9.84,2.59-.09,1.74-9.96-.26-14.76,5.44-4.71,5.6-.37,15.01-2.85,15.01s-7.39-3.92-4.4-10.61Z"/></g>
  <g id="bbr">
    <path class="bb-6" d="m344.16,225.78c-27.33,32.51-76.29,37.06-109.34,10.18-33.05-26.88-37.69-75.03-10.35-107.53,27.33-32.51,76.29-37.06,109.34-10.18s37.69,75.03,10.35,107.53Z"/>
    <path class="bb-8" d="m340.14,212.16c-24.48,29.11-69.06,32.59-99.57,7.77-30.51-24.82-35.41-68.53-10.93-97.64,24.48-29.11,69.06-32.59,99.57-7.77,30.51,24.82,35.41,68.53,10.93,97.64Z"/>
    <path class="bb-2" d="m337.4,202.25c-22.36,26.59-63.41,29.5-91.68,6.51-28.27-23-33.07-63.19-10.71-89.78,22.36-26.59,63.41-29.5,91.68-6.51,28.27,23,33.07,63.19,10.71,89.78Z"/>
    <path class="bb-1" d="m225.41,168.82c-9.1-28.13,9.12-58.94,40.71-68.83,31.59-9.89,64.57,4.9,73.67,33.03,9.1,28.13-9.12,58.94-40.71,68.83-31.59,9.89-64.57-4.9-73.67-33.03Z"/>
    <path class="bb-4" d="m298.35,122.06c1.6,1.39,4.09-.47,6.17,1.05,1.47,1.07,2.07,3.32,1.78,5.08-.83,5.02-8.88,5.73-8.88,8.96,0,3.25,8.11,4.05,8.52,8.25.23,2.41-2.12,5.29-4.58,5.85-2.91.66-4.5-2.22-8.62-1.73-1.01.12-2.87.34-4.07,1.64-2.96,3.21,1.76,9.04-.68,12-1.94,2.35-7.74,2.14-11.44-.38-5.42-3.7-2.24-12.54-7.67-12.85-3.85-.22-10.26,5.64-15.25.15-2.48-2.72-2.64-8.61-.11-12.65,3.08-4.92,12.9-2.03,11.54-8.13-1.87-8.37-2.01-13.95,5.21-14.59,4.73-.42,9.21,6.41,17.02,4.92,5.25-.99,8.4-5.86,10.03-4.73,1.5,1.05-.97,5.37,1.05,7.13Z"/>
    <path class="bb-3" d="m290.37,141.67c-3.03,3.39-8.54,6.21-14.27,4.58-4.72-1.35-9.8-5.78-9.32-10.89.53-5.64,7.48-8.3,8.72-8.77,6.29-2.41,15.87-1.55,18.21,3.91,2.11,4.93-2.92,10.7-3.34,11.16Z"/>
    <path class="bb-9" d="m280.91,138.95c-2.17.26-4.85-1.08-5.08-3.14-.2-1.79,1.52-3.31,2.94-3.89,2.37-.98,5.81-.12,6.44,1.93.63,2.04-1.65,4.78-4.29,5.1Z"/>
    <path class="bb-11" d="m272.21,128.13c5.66-2.76,12.09-4.82,17.3-1.79,4.28,2.49,6.77,7.23,5.93,8.13-1.18,1.26-7.51-6.44-14.84-5.13-7.19,1.29-9.86,11.14-11.76,9.59s-3.2-7.6,3.37-10.8Z"/></g></svg>