<?xml version="1.0" encoding="UTF-8"?>
<svg id="Layer_2" data-name="Layer 2" xmlns="http://www.w3.org/2000/svg" viewBox="0 0 870.59 870.59">
  <defs>
    <style>.ch-1 {  fill: #9ece50;}.ch-2 {  fill: #86bb3d;}.ch-3 {  fill: #ef4444;}.ch-4 {  fill: #f79d9d;}.ch-5 {  fill: #e03231;}.ch-6 {  fill: #d22423;}
    </style>
  </defs>
  <path id="stem" class="ch-2" d="m468.93,250.89c3.7-2.02,11.32.4,13.65,5.22,4.48,9.26-14.42,18.88-19.27,43.37-.92,4.62-2.62,14.65,1.2,25.7,5.83,16.87,20.96,25.51,18.87,28.51-1.06,1.52-5.72.37-8.83-1.2-8.65-4.39-10.5-14.69-11.65-14.46-2.02.41-1.21,23.36,6.83,57.02,6.64,27.81,9.96,41.72,17.67,55.41,8.47,15.05,22.07,32.3,17.67,37.75-2.15,2.66-5.22,2.81-5.22,2.81-2.93,0-5.19-2.02-6.02-2.81-7.67-7.3-11.99-34.35-13.65-36.94-6.03-9.42-5.33-8.41-11.65-34.53-1.67-6.91-5.97-25.02-10.84-48.59-6.81-32.93-6.56-51.14-9.24-51.4-2.08-.2-3.86,7.72-16.06,18.87-2.25,2.06-8.23,9.54-20.88,23.69-33.62,37.62-31.82,35.3-34.13,38.15-16.86,20.74-25.28,31.11-30.12,44.97-9.65,27.7-4.69,47.62-10.44,53.81-3.52,3.79-8.46,2.25-11.24-6.42-10.15-31.67,57.64-114.83,69.07-127.7,0,0,38.89-43.8,60.23-79.51,5.46-9.13,8.19-13.7,9.64-19.27,1.7-6.52,1.37-10.79,4.42-12.45Z"/>
  <g id="leaf">
    <path class="ch-1" d="m546.56,372c30.09,29.67,91.3,71.98,88.41,72.97,0,0-57.52,26.63-108.12-2.66-50.6-29.29-57.52-100.13-57.52-100.13,0,0,49.35,2.34,77.23,29.83Z"/>
    <path class="ch-2" d="m635.08,444.97c-15.09,3.76-49.08-3.54-49.08-3.54,0,0-9.67-3.6-43.52-22.32-28.27-15.63-60.43-58.88-70.26-72.72,0,0,46.83,47.16,67.29,61.92,20.46,14.76,54.31,29.88,54.31,29.88,0,0,34.71,7.82,41.27,6.78Z"/></g>
  <g id="lcherry">
    <path class="ch-3" d="m336.02,483.79c11.45-1.41,26.83,2.54,31.72,3.21,12.29,1.69,22.84,5.97,32.53,25.3,10.35,20.64,6.04,37.4,2.01,47.79-3.17,8.15-10.26,31.96-34.13,47.79-26.39,17.5-56.98,15.46-77.5,7.63-17.61-6.72-28.01-17.78-30.12-20.08-12.6-13.75-16.5-28.36-18.07-34.53-1.78-6.99-4.92-19.99-1.2-36.14.85-3.71,5.83-23.92,24.5-38.95,5.33-4.29,13.9-11.02,26.9-12.85,7.77-1.1,16.19-2.28,23.29,2.41,4.25,2.81,7.5,7.38,14.46,8.43,2.65.4,4.69.12,5.62,0Z"/>
    <path class="ch-4" d="m258.52,514.9c-1.58-1.1,1.94-12.32,10.84-20.88,8.86-8.52,22.19-13.57,26.9-9.64,2.65,2.21,3.21,5.22,3.21,5.22.46,2.43-.66,3.19,0,5.22.89,2.73,3.36,2.7,4.02,5.22.4,1.52.06,3.67-1.2,4.82-2.14,1.94-5.77-.02-12.85-1.2-.64-.11-6.45-1.06-10.44-.8-12.03.78-18.71,13.27-20.48,12.05Z"/>
    <path class="ch-5" d="m374.97,489.82c7.72-4.07,32.13,15.4,31.32,34.94-.12,2.88-.76,5.01-1.2,6.42-10.49,33.1-30.12,49.79-30.12,49.79-20.85,17.73-43.35,20.42-55.41,21.68-5.97.63-45.42,4.77-65.45-16.87-2.65-2.86-7.46-8.88-6.02-10.84,1.77-2.41,11.28,3.53,24.09,6.83,17.13,4.41,31.66,1.91,37.75.8,8.11-1.48,27.47-5.01,43.37-21.28,2.29-2.35,13.06-13.71,18.07-32.12,6.26-23.01-2.1-36.34,3.61-39.35Z"/>
    <path class="ch-6" d="m404.22,521.59c5.3,1.71,2.88,41.19-15.09,63.66-2,2.51-4.79,5.17-5.16,5.9-3.93,7.75-15.18,18.14-31.37,24.03-16.69,6.07-30.75,5.84-39.71,5.06-7.08-.62-17.55-1.63-29.38-7.59-16.69-8.4-29.06-23.09-27.4-25.72,1.17-1.85,8.54,3.49,22.63,7.59,5.71,1.66,23.46,6.64,43.68,3.37,22.95-3.71,38.46-16.31,43.68-20.66,29.53-24.6,33.26-57.22,38.12-55.65Z"/></g>
  <g id="rcherry">
    <path class="ch-3" d="m499.86,472.59c5.25-2.39,11.84-3.78,17.73-4.69,5.89-.9,11.13-1.06,13.51-1.73,5.7-2.86,14.14-2.06,19.23.92,5.84,2.35,12.25,6.13,19.37,13.5,16.04,16.61,16.94,33.89,16.2,45-.59,8.72-.24,33.56-18.29,55.8-19.96,24.58-49.76,31.78-71.68,30.44-18.81-1.15-32.04-8.6-34.74-10.16-16.13-9.36-24.22-22.13-27.56-27.56-3.79-6.14-10.67-17.61-11.95-34.13-.29-3.79-1.58-24.57,11.74-44.49,3.8-5.69,9.97-14.67,21.84-20.3,7.09-3.37,14.77-7.02,22.95-4.66,4.9,1.41,9.37,4.8,16.32,3.73,2.65-.41,4.51-1.29,5.36-1.68Z"/>
    <path class="ch-4" d="m435.19,525.43c-1.84-.57-1.83-12.34,4.11-23.17,5.91-10.78,17.12-19.58,22.8-17.24,3.19,1.32,4.63,4.02,4.63,4.02,1.16,2.18.32,3.25,1.56,4.98,1.66,2.34,4.01,1.58,5.39,3.78.83,1.33,1.15,3.49.29,4.96-1.46,2.49-5.51,1.71-12.62,2.69-.64.09-6.47.91-10.2,2.35-11.24,4.34-13.89,18.26-15.94,17.62Z"/>
    <path class="ch-5" d="m538.83,466.7c6.15-6.19,35.27,5.09,40.33,23.98.75,2.78.78,5,.77,6.49-.12,34.73-13.86,56.52-13.86,56.52-14.6,23.15-35.27,32.44-46.4,37.25-5.51,2.38-41.91,18.13-67.5,3.46-3.39-1.94-9.77-6.24-8.99-8.55.97-2.83,11.82,0,25.03-.69,17.67-.91,30.78-7.63,36.26-10.51,7.3-3.84,24.72-12.99,35.03-33.27,1.49-2.92,8.37-16.98,7.64-36.06-.9-23.83-12.86-34.05-8.31-38.63Z"/>
    <path class="ch-6" d="m576.24,488.28c5.57.04,15.06,38.45,4.62,65.27-1.16,2.99-3.03,6.37-3.16,7.18-1.43,8.57-9.07,21.85-22.76,32.31-14.11,10.78-27.6,14.76-36.38,16.69-6.94,1.53-17.24,3.69-30.31,1.54-18.44-3.03-34.64-13.35-33.83-16.36.57-2.12,9.19.78,23.87.48,5.95-.12,24.37-.68,42.69-9.83,20.8-10.4,31.83-27.06,35.51-32.77,20.83-32.3,14.64-64.54,19.75-64.5Z"/></g></svg>