<?xml version="1.0" encoding="UTF-8"?>
<svg xmlns="http://www.w3.org/2000/svg" viewBox="0 0 612 612">
  <defs>
    <style>.le-1 {fill: #ffe984;}.le-2 {fill: none;}.le-2, .le-3, .le-4 {stroke: #231f20;stroke-miterlimit: 10;}.le-2, .le-4 {stroke-width: 5px;}.le-5 {fill: #edc20c;}.le-6 {fill: #ffd20a;}.le-7 {fill: #f0cd3b;}.le-8 {fill: #e7bd10;}.le-9 {fill: #40433f;}.le-3 {fill: #ffd624;stroke-width: 3px;}.le-10 {fill: #deb60f;}.le-11, .le-4 {fill: #f4c70a;}.le-12 {fill: #deb610;}.le-13 {fill: #fddf52;}
    </style>
  </defs>
  <g id="lemon">
    <g id="base">
      <path id="base-2" data-name="base" class="le-11" d="m292,262c7.9-9.69,30.87-35.24,70.2-45.6,31.76-8.37,57.54-2.46,64.8-.6,44.18,11.32,67.83,43.37,75,53.4,6.37,8.91,27.52,39.41,26.4,82.8-.3,11.47-1.35,38.43-19.8,65.4-19.06,27.87-44.99,38.64-53.4,42-45.96,18.36-87.96,1.6-99-3-14.48-6.03-52.86-24.91-72.6-69-27.55-61.53,4.86-119.32,8.4-125.4Z"/>
      <path id="shadow" class="le-12" d="m526.24,328.13c2.07,12.89,5.71,37.64-6,66.2-12.71,31.01-35.72,47.53-41.1,51.24-38.57,26.56-81.93,21.52-102.6,16.12-1.6-.42-13.19-3.49-12.9-5.76.66-5.1,59.14,12.7,103.8-13.82,17.39-10.33,37.51-30.24,45.9-56.7.47-1.48,2.01-6.48,3.3-14.68,8.08-51.41-14.58-95.89-12.3-96.71,1.68-.6,16.82,22.44,21.9,54.11Z"/>
      <path id="shine" class="le-7" d="m459.24,232.66c-.56,2.2-33.95-15.95-79-6.37-2.06.44-7.49,1.65-14.5,4-9.9,3.33-46.8,15.73-68.26,47.88-20.17,30.22-18.13,65.07-21.49,64.48-2.56-.45-3.03-20.66.36-38.73,1.35-7.17,4.69-24.08,16.13-40.84,9.73-14.26,20.3-21.05,29.82-27.18,21.95-14.11,41.82-17.31,53.53-19.06,9.06-1.36,24.84-3.57,44.99.42,21.57,4.27,38.82,13.81,38.42,15.4Z"/>
      <path id="outline" class="le-2" d="m279.47,288.47l11.48-25.43s19.28-23.16,39.15-33.3c10.57-5.39,19.37-7.71,27.9-9.9,14.98-3.85,34.37-8.83,58.95-4.95,25.94,4.09,43.7,15.85,52.2,21.6,17.69,11.98,27.92,24.88,30.6,28.35,2.55,3.31,12.27,16.26,19.35,36,3.98,11.09,8.67,28.64,8.1,50.4-.55,20.85-5.69,36.2-7.2,40.5-3.39,9.65-10.34,28.7-27.9,45.45-19.37,18.47-40.91,23.88-54,27-35.5,8.45-65.74.71-81-4.5l-43.65-28.57-27-33.3-12.6-37.57-1.26-45,6.88-26.78Z"/>
      <path id="spots" class="le-5" d="m411.46,250.59c0,2.88-.8,5.22-1.78,5.22s-1.78-2.34-1.78-5.22.8-5.22,1.78-5.22,1.78,2.34,1.78,5.22Zm-17.55,60.77c1.81,2.41,2.28,5.12,1.04,6.06s-3.71-.25-5.53-2.66-2.28-5.12-1.04-6.06,3.71.25,5.53,2.66Zm11.49,19.76c0,2.88-1.42,5.22-3.18,5.22s-3.18-2.34-3.18-5.22,1.42-5.22,3.18-5.22,3.18,2.34,3.18,5.22Zm9.62-20.71c0,2.88-.8,5.22-1.78,5.22s-1.78-2.34-1.78-5.22.8-5.22,1.78-5.22,1.78,2.34,1.78,5.22Zm-8.27-14.8c-1.28,1.51-2.92,2.21-3.67,1.57s-.32-2.38.96-3.89,2.92-2.21,3.67-1.57.32,2.38-.96,3.89Zm25.66,29.58c-2.71.95-5.18.96-5.5.03s1.61-2.46,4.33-3.4,5.18-.96,5.5-.03-1.61,2.46-4.33,3.4Zm-17.77,30c1.77,2.27,2.57,4.61,1.79,5.21s-2.84-.74-4.61-3.01c-1.77-2.27-2.57-4.61-1.79-5.21s2.84.74,4.61,3.01Zm-17.96,32.05c1.55,2.43,1.23,5.41-.72,6.66s-4.78.3-6.33-2.13-1.23-5.41.72-6.66,4.78-.3,6.33,2.13Zm61.14-77.52c0,2.88-.8,5.22-1.78,5.22s-1.78-2.34-1.78-5.22.8-5.22,1.78-5.22,1.78,2.34,1.78,5.22Zm-89.01-74.35c-1.28,2.58-3.04,4.31-3.92,3.87s-.55-2.89.73-5.47,3.04-4.31,3.92-3.87.55,2.89-.73,5.47Zm-42.79,46.5c.55,2.97-.25,5.6-1.77,5.88s-3.21-1.89-3.76-4.86.25-5.6,1.77-5.88,3.21,1.89,3.76,4.86Zm1.47,29.28c-1.28,2.58-3.6,4.03-5.17,3.24s-1.8-3.51-.52-6.09,3.6-4.03,5.17-3.24,1.8,3.51.52,6.09Zm20.37-20.67c-1.28,2.58-3.04,4.31-3.92,3.87s-.55-2.89.73-5.47,3.04-4.31,3.92-3.87.55,2.89-.73,5.47Zm-3.33-16.95c-1.82.77-3.6.66-3.98-.25s.77-2.27,2.59-3.05,3.6-.66,3.98.25-.77,2.27-2.59,3.05Zm9.77,37.96c-2.85-.37-5.06-1.46-4.93-2.44s2.54-1.47,5.39-1.11c2.85.37,5.06,1.46,4.93,2.44s-2.54,1.47-5.39,1.11Zm-29.27,18.87c.57,2.82.25,5.27-.72,5.47s-2.21-1.94-2.78-4.76-.25-5.27.72-5.47,2.21,1.94,2.78,4.76Zm-30.35,20.63c.3,2.86-1.31,5.39-3.61,5.63s-4.41-1.88-4.71-4.74,1.31-5.39,3.61-5.63,4.41,1.88,4.71,4.74Zm74.85-21.41c-1.28,2.58-3.04,4.31-3.92,3.87s-.55-2.89.73-5.47,3.04-4.31,3.92-3.87.55,2.89-.73,5.47Zm-46.57,34.69c-.68,2.82-2.39,5.06-3.8,4.99s-2.01-2.41-1.32-5.23,2.39-5.06,3.8-4.99,2.01,2.41,1.32,5.23Zm29.18,6.9c-2.1,2.08-4.64,2.91-5.68,1.85s-.17-3.59,1.92-5.67,4.64-2.91,5.68-1.85.17,3.59-1.92,5.67Zm20.77-9.15c-2.1,2.08-4.27,3.28-4.85,2.69s.65-2.75,2.75-4.83,4.27-3.28,4.85-2.69-.65,2.75-2.75,4.83Zm5.9-15.63c-1.85.32-3.33-.17-3.31-1.08s1.54-1.91,3.4-2.22,3.33.17,3.31,1.08-1.54,1.91-3.4,2.22Zm-6.4,36.71c-2.29-.95-3.75-2.42-3.27-3.28s2.74-.8,5.03.14,3.75,2.42,3.27,3.28-2.74.8-5.03-.14Zm-32.34,10.95c-.61,2.7-1.84,4.86-2.74,4.83s-1.14-2.24-.52-4.94,1.84-4.86,2.74-4.83,1.14,2.24.52,4.94Zm5.67-45.93c-2.64,1.09-4.93,1.28-5.13.43s1.78-2.41,4.41-3.5,4.93-1.28,5.13-.43-1.78,2.41-4.41,3.5Zm97.33,69.96c.41-2.77,1.56-4.74,2.58-4.4s1.51,2.86,1.11,5.63c-.41,2.77-1.56,4.74-2.58,4.4s-1.51-2.86-1.11-5.63Zm-19.38-33.41c-2.94-.05-5.48-.91-5.68-1.92s2.03-1.78,4.97-1.73,5.48.91,5.68,1.92-2.03,1.78-4.97,1.73Zm31.39-132.26c-.68,2.82-2.39,5.06-3.8,4.99s-2.01-2.41-1.32-5.23c.68-2.82,2.39-5.06,3.8-4.99s2.01,2.41,1.32,5.23Zm-7.61,21.13c-2.1,2.08-4.64,2.91-5.68,1.85s-.17-3.59,1.92-5.67,4.64-2.91,5.68-1.85.17,3.59-1.92,5.67Zm20.77-9.15c-2.1,2.08-4.27,3.28-4.85,2.69s.65-2.75,2.75-4.83,4.27-3.28,4.85-2.69-.65,2.75-2.75,4.83Zm5.9-15.63c-1.85.32-3.33-.17-3.31-1.08s1.54-1.91,3.4-2.22,3.33.17,3.31,1.08-1.54,1.91-3.4,2.22Zm-6.4,36.71c-2.29-.95-3.75-2.42-3.27-3.28s2.74-.8,5.03.14,3.75,2.42,3.27,3.28-2.74.8-5.03-.14Zm-32.34,10.95c-.61,2.7-1.84,4.86-2.74,4.83s-1.14-2.24-.52-4.94,1.84-4.86,2.74-4.83,1.14,2.24.52,4.94Zm5.67-45.93c-2.64,1.09-4.93,1.28-5.13.43s1.78-2.41,4.41-3.5,4.93-1.28,5.13-.43-1.78,2.41-4.41,3.5Zm-54.82,28.33c.14-2.9,1.39-5.42,2.79-5.62s2.43,1.99,2.29,4.89-1.39,5.42-2.79,5.62-2.43-1.99-2.29-4.89Zm3.48-22.19c1.67-2.44,4.01-3.73,5.22-2.9s.85,3.49-.82,5.93-4.01,3.73-5.22,2.9-.85-3.49.82-5.93Zm-57.48-5.2c1.67-2.44,3.58-4.03,4.26-3.56s-.12,2.83-1.79,5.26-3.58,4.03-4.26,3.56.12-2.83,1.79-5.26Zm35.96,34.59c1.76-.66,3.3-.47,3.45.43s-1.16,2.17-2.92,2.83-3.3.47-3.45-.43,1.16-2.17,2.92-2.83Zm-.65-37.26c2.43.49,4.14,1.66,3.83,2.6s-2.54,1.31-4.97.81-4.14-1.66-3.83-2.6,2.54-1.31,4.97-.81Zm29.69-16.89c.09-2.76.89-5.12,1.78-5.27s1.54,1.98,1.45,4.75-.89,5.12-1.78,5.27-1.54-1.98-1.45-4.75Zm3.1,46.18c2.38-1.57,4.6-2.19,4.96-1.4s-1.29,2.71-3.67,4.27c-2.38,1.57-4.6,2.19-4.96,1.4s1.29-2.71,3.67-4.27Zm50.22,73.57c3.19.18,5.96,1.68,6.18,3.35s-2.2,2.89-5.39,2.71-5.96-1.68-6.18-3.35,2.2-2.89,5.39-2.71Zm24.42,4.24c2.68,2,4.1,4.79,3.17,6.24-.93,1.45-3.85,1-6.52-1-2.68-2-4.1-4.79-3.17-6.24s3.85-1,6.52,1Zm-14.16-22.31c2.68,2,4.43,4.28,3.9,5.09s-3.11-.15-5.79-2.15-4.43-4.28-3.9-5.09,3.11.15,5.79,2.15Zm-25.27,9.29c.72,2.1.51,3.94-.49,4.11s-2.38-1.39-3.1-3.49-.51-3.94.49-4.11,2.38,1.39,3.1,3.49Zm48.19-13.37c-.55,2.89-1.84,4.93-2.88,4.55s-1.43-3.03-.88-5.93,1.84-4.93,2.88-4.55,1.43,3.03.88,5.93Zm18.49,35.46c3.04.12,5.64,1.08,5.79,2.14s-2.19,1.83-5.23,1.7-5.64-1.08-5.79-2.14,2.19-1.83,5.23-1.7Zm-50.86,3.51c1.72,2.85,2.4,5.5,1.52,5.92s-2.98-1.55-4.69-4.39c-1.72-2.85-2.4-5.5-1.52-5.92s2.98,1.55,4.69,4.39Zm-59.07,72.52c2.87-.05,5.22.7,5.23,1.69s-2.3,1.83-5.17,1.89-5.22-.7-5.23-1.69,2.3-1.83,5.17-1.89Zm-24.35-9.52c-.9,2.32-2.34,3.81-3.21,3.34s-.85-2.73.05-5.05,2.34-3.81,3.21-3.34.85,2.73-.05,5.05Zm66.26,15.98c.12-3.21,1.56-6.01,3.23-6.25s2.92,2.15,2.8,5.35c-.12,3.21-1.56,6.01-3.23,6.25s-2.92-2.15-2.8-5.35Zm-22.7-32.85c2.9.5,4.95,1.76,4.59,2.8s-3,1.49-5.89.99-4.95-1.76-4.59-2.8,3-1.49,5.89-.99Zm83.05-106.73c0,2.88-.8,5.22-1.78,5.22s-1.78-2.34-1.78-5.22.8-5.22,1.78-5.22,1.78,2.34,1.78,5.22Zm-.77-23.02c-2.29-.95-3.75-2.42-3.27-3.28s2.74-.8,5.03.14,3.75,2.42,3.27,3.28-2.74.8-5.03-.14Zm-1.41,58.74c3.19.18,5.96,1.68,6.18,3.35s-2.2,2.89-5.39,2.71-5.96-1.68-6.18-3.35,2.2-2.89,5.39-2.71Zm17.42-14.75c-.55,2.89-1.84,4.93-2.88,4.55s-1.43-3.03-.88-5.93,1.84-4.93,2.88-4.55,1.43,3.03.88,5.93Zm-172.41,81.74c2.86.25,5.12,1.24,5.03,2.23s-2.47,1.58-5.34,1.34-5.12-1.24-5.03-2.23,2.47-1.58,5.34-1.34Zm-23.24-12c-1.14,2.21-2.72,3.54-3.54,2.98s-.56-2.81.57-5.02c1.14-2.21,2.72-3.54,3.54-2.98s.56,2.81-.57,5.02Zm64.25,22.79c.45-3.18,2.18-5.81,3.86-5.89s2.68,2.44,2.23,5.62-2.18,5.81-3.86,5.89-2.68-2.44-2.23-5.62Zm-19.18-35.03c2.83.8,4.74,2.26,4.28,3.27s-3.14,1.17-5.97.37-4.74-2.26-4.28-3.27,3.14-1.17,5.97-.37Z"/></g>
    <g id="butt">
      <path id="out" class="le-8" d="m455.14,422.14c-1.59-4.85-3.56-13.43-.9-22.95,6.67-23.86,37.21-34.93,40.27-31.5.52.58-.19,1.07-.23,4.72-.05,6.05,1.86,8.28.45,11.03-.63,1.23-1.47,1.68-3.83,3.15-3.56,2.23-8.44,5.29-10.35,6.98-7.39,6.54-.78,19.6-6.98,23.17-2.69,1.55-4.56-.54-10.35,1.12-3.71,1.07-6.43,2.93-8.1,4.28Z"/>
      <path id="in" class="le-10" d="m472.98,414.02c0-4.89.88-11.95,5.17-18.67,4.39-6.87,12.63-13.84,16.2-11.93.97.52,1.4,2,2.25,4.95,1.1,3.83,2.05,7.1,1.35,11.25-.22,1.34-1.31,6.9-6.08,11.02-7.73,6.69-18.19,3.6-18.9,3.38Z"/>
      <path id="outline-2" data-name="outline" class="le-9" d="m494.58,369.25c.66-.05.21,9.47,4.95,20.25.81,1.85,1.56,3.23,2.02,5.62.26,1.33,1.43,7.3-1.8,13.05-3.24,5.77-8.92,7.8-11.02,8.55-5.65,2.02-7.49.2-17.77,1.12-8.46.76-13.57,2.56-13.73,2.02-.16-.55,5.1-2.93,10.8-4.27,8.46-1.99,10.81.91,16.65-.9,4.85-1.51,10.72-5.63,12.6-11.47,1.81-5.62-1.62-8.02-2.92-20.48-.77-7.36-.3-13.46.23-13.5Z"/></g></g>
  <g id="openlemon">
    <g id="topouter">
      <path id="fill" class="le-6" d="m288.4,265.9c6.86,1.67,24.64,6.23,40.2,21.9,12.54,12.63,17.34,26.12,19.5,32.4,8.59,25.01,3.95,46.88,1.2,59.1-7.55,33.48-26.27,54.79-34.2,63.6-7.76,8.61-30.66,33.4-69.3,44.1-16.8,4.65-39.45,10.93-64.2.6-24.22-10.11-36.05-30.1-39.6-36.3-11.61-20.27-11.75-39.36-11.7-48.3.13-25.68,9.79-44.19,17.1-58.2,10.68-20.46,23.19-33.76,29.1-39.6,7.45-7.36,21.49-20.98,44.1-30.6,12.55-5.34,37.65-16.03,67.8-8.7Z"/>
      <path id="outline-3" data-name="outline" class="le-2" d="m288.4,265.9c6.86,1.67,24.64,6.23,40.2,21.9,12.54,12.63,17.34,26.12,19.5,32.4,8.59,25.01,3.95,46.88,1.2,59.1-7.55,33.48-26.27,54.79-34.2,63.6-7.76,8.61-30.66,33.4-69.3,44.1-16.8,4.65-39.45,10.93-64.2.6-24.22-10.11-36.05-30.1-39.6-36.3-11.61-20.27-11.75-39.36-11.7-48.3.13-25.68,9.79-44.19,17.1-58.2,10.68-20.46,23.19-33.76,29.1-39.6,7.45-7.36,21.49-20.98,44.1-30.6,12.55-5.34,37.65-16.03,67.8-8.7Z"/>
      <path id="inner" class="le-1" d="m302.8,284.2c20.46,10.69,29.48,27.56,31.2,30.9,9.32,18.13,7.76,34.94,6.6,47.4-3.06,32.94-19.34,55.63-26.1,64.8-7.08,9.6-23.69,31.57-54.3,44.4-10.43,4.37-32.21,13.17-59.1,8.1-8.8-1.66-24.06-4.74-37.5-17.4-12.97-12.21-17.12-26.62-19.2-34.2-4.54-16.54-2.67-30.06-1.2-39.9,3.18-21.33,11.35-36.27,15.9-44.4,15.8-28.27,36.5-42.87,41.4-46.2,3.54-2.41,6.65-4.24,8.7-5.4,17.57-9.94,33.88-13.7,44.7-15.3,6.55-1.21,27.17-4.16,48.9,7.2Z"/></g>
    <g id="slices">
      <path id="single" class="le-3" d="m205.6,308.2c4.82-3.71,13.58-10.18,22.5-15,2.09-1.13,4.42-2.29,7.5-3.3,2.5-.82,6.43-1.84,12.9-2.1,10.41-.42,15.61-.63,18,1.8,4.72,4.79-1.91,15.87-10.2,38.4-10.61,28.82-10.91,40.95-16.26,41.26-3.94.23-6.68-6.18-18.54-29.86-6.91-13.8-12.56-24.76-15.9-31.2Zm58.5,27c-9.59,19.68-16.09,29.25-13.2,32.1,2.71,2.67,10.41-3.74,37.5-18.3,23.53-12.64,32.77-15.89,33.6-24,.64-6.3-3.92-14.17-8.1-18.3-1.73-1.71-2.67-2.05-9.3-7.8-.97-.84-2.5-2.18-4.8-3.6-.62-.38-3-1.86-5.4-2.7-4.72-1.66-9.43-.82-12.3,0-3.67,10.21-9.48,25.12-18,42.6Zm-91.8,42c11.79,0,16.51-.59,27.31-1.03,24.99-1.01,29.32.96,31.19-2.27,2.31-3.98-3.7-7.99-17.29-30.13-9.04-14.73-14.64-26.39-23.21-26.35-1.31,0-2.35.28-2.94.44-6.37,1.73-9.89,7.94-14.73,16.72-2.5,4.55-2.61,5.59-4.83,8.71-1.63,2.28-2.81,3.47-4.2,6.3-.99,2.02-.93,2.52-2.1,4.8-1.61,3.13-2.31,3.34-3.3,5.4-1.28,2.67-1.37,5-1.5,8.1-.09,2.15,0,5.28.9,9,3.59.15,8.64.3,14.7.3Zm107.5-14.99c-18.8,7.54-29.62,10.47-29.63,15.53,0,4.74,9.49,4.99,34.32,17.46,14.11,7.09,20.55,11.78,27.9,9,5.43-2.06,8.85-7.24,10.8-10.2,1.53-2.32,3.12-7.25,6.3-17.1,2.65-8.23,3.03-10.22,2.83-12.88-.18-2.47-.68-2.99-1.46-9.13-.48-3.74-.45-4.79-1.07-6.49-1.21-3.34-3.58-5.55-5.4-6.9-9.63,5.13-24.93,12.82-44.6,20.71Zm-73.23,48.61c18.24-16.59,27.53-23.44,25.74-27.52-1.1-2.51-5.62-2.26-43.21,2.61-19.35,2.5-39.23,5.23-40.65,12.86-.28,1.51-.1,4.58.15,8.74.22,3.63.35,5.64.99,8.32.64,2.68,1.44,4.52,2.95,8.03,1.02,2.36,1.8,4.18,3.19,6.49,1.6,2.65,1.94,2.53,3.38,4.97,2.17,3.68,1.88,4.78,3.29,6.69,1.13,1.54,3.24,3.43,7.5,4.5,8.37-8.72,20.81-21.25,36.67-35.68Zm32.35,31.78c-.12-35.56,2.27-47.89-2.42-49.8-2.95-1.2-6.17,2.77-26.5,25.36-21.07,23.41-29.03,31.85-26.3,39.74,1.03,2.98,3.96,6.99,8.1,9,1.58.77,1.53.37,13.5,2.7,3.97.77,5.98,1.17,7.2,1.5,1.64.45,2.97.89,5.1,1.2.38.06,2.3.33,4.2.3,3.71-.05,5.55-1.22,11.8-3.32,1.29-.43,3.29-1.08,5.79-1.79-.19-5.49-.44-14.2-.48-24.9Zm32.98-43.5c-14.41-9.25-20.64-15.62-24.83-13.31-4.59,2.54-.43,12.07,1.13,39.71,1.18,20.89-.21,32.98,6.3,36,3.29,1.53,7.63.27,10.79-.64,3.16-.91,6.41-3.1,12.91-7.46.64-.43,4.37-2.95,9.03-6.56,3.38-2.62,4.99-4.07,6.57-5.74,1.34-1.43,2.29-2.62,3.3-3.9,1.06-1.34,3.35-4.24,5.1-7.2,1.47-2.48,3.53-6.62,4.8-12.6-8.71-3.58-21.16-9.35-35.1-18.3Z"/>
      <path id="shine-2" data-name="shine" class="le-13" d="m186.29,337.61c1.64,1.93,2.72,3.7,2.42,3.96s-1.89-1.09-3.53-3.01-2.72-3.7-2.42-3.96,1.89,1.09,3.53,3.01Zm11.09,5.7c-.31.26.77,2.04,2.42,3.96s3.22,3.28,3.53,3.01-.77-2.04-2.42-3.96-3.22-3.28-3.53-3.01Zm-15.34,7.27c-.19.36,1.48,1.6,3.73,2.76s4.22,1.82,4.4,1.47-1.48-1.6-3.73-2.76c-2.24-1.17-4.22-1.82-4.4-1.47Zm-16.36,14.2c-.05.4,2.29.99,5.21,1.32s5.33.27,5.37-.13-2.29-.99-5.21-1.32c-2.92-.33-5.33-.27-5.37.13Zm26.59.13c-.11.39,2.11,1.33,4.94,2.11s5.22,1.09,5.33.7-2.11-1.33-4.94-2.11c-2.84-.78-5.22-1.09-5.33-.7Zm16.55-4.15c-.29.55,1.38,1.99,3.72,3.21s4.47,1.76,4.76,1.2-1.38-1.99-3.72-3.21-4.47-1.76-4.76-1.2Zm-39.84-7.92c-.1.3,1.13.96,2.74,1.49s3,.71,3.09.42-1.13-.96-2.74-1.49-3-.71-3.09-.42Zm26.75-20.07c-.12.14.44.79,1.24,1.45s1.55,1.07,1.66.93-.44-.79-1.24-1.45-1.55-1.07-1.66-.93Zm-21.61,8.77c-.16.27.31.83,1.05,1.26s1.46.55,1.61.28-.31-.83-1.05-1.26-1.46-.55-1.61-.28Zm8.69,18.86c-.1.3.79.85,1.97,1.24s2.23.46,2.32.17-.79-.85-1.97-1.24-2.23-.46-2.32-.17Zm-21.52,11.81c0,.19,1.19.34,2.66.34s2.66-.15,2.66-.34c0-.19-1.19-.34-2.66-.34-1.47,0-2.66.15-2.66.34Zm19.5-1.34c0,.19,1.18.39,2.64.45s2.67-.04,2.67-.22-1.18-.39-2.64-.45c-1.47-.06-2.67.04-2.67.22Zm30.17-2.1c-.04.18.87.54,2.03.81s2.13.33,2.18.15-.87-.54-2.03-.81c-1.16-.26-2.13-.33-2.18-.15Zm-12.51-14.42c-.09.17.71.75,1.77,1.3s2,.87,2.08.7-.71-.75-1.77-1.3c-1.06-.55-2-.87-2.08-.7Zm52.28-43.88c-.68,2.44-1.55,4.32-1.94,4.22s-.15-2.17.53-4.61,1.55-4.32,1.94-4.22.15,2.17-.53,4.61Zm1.47,12.38c-.39-.11-1.26,1.78-1.94,4.22s-.92,4.5-.53,4.61,1.26-1.78,1.94-4.22.92-4.5.53-4.61Zm-14.6-8.66c-.4.05-.5,2.12-.21,4.64s.84,4.52,1.24,4.47.5-2.12.21-4.64c-.28-2.51-.84-4.52-1.24-4.47Zm-20.91-5.65c-.36.19.45,2.45,1.81,5.06s2.75,4.57,3.11,4.38-.45-2.45-1.81-5.06-2.75-4.57-3.11-4.38Zm14.73,22.13c-.38.13.07,2.49,1.01,5.28s2.01,4.94,2.39,4.81-.07-2.49-1.01-5.28c-.94-2.79-2.01-4.94-2.39-4.81Zm7.22,17.65c-.62.07-.88,2.25-.59,4.88s1.04,4.69,1.66,4.62.88-2.25.59-4.88-1.04-4.69-1.66-4.62Zm-11.42-47.14c-.3.09-.17,1.48.29,3.11s1.08,2.88,1.38,2.8.17-1.48-.29-3.11-1.08-2.88-1.38-2.8Zm30.94-6.23c-.18-.02-.41.81-.51,1.84s-.03,1.88.16,1.9.41-.81.51-1.84.03-1.88-.16-1.9Zm-17.9,1.78c-.31.02-.52.72-.46,1.57s.36,1.51.67,1.49.52-.72.46-1.57-.36-1.51-.67-1.49Zm-10.39,23.58c-.3.09-.27,1.13.07,2.33s.86,2.1,1.16,2.02.27-1.13-.07-2.33-.86-2.1-1.16-2.02Zm-21.82-11.26c-.15.1.39,1.18,1.21,2.4s1.61,2.12,1.77,2.02-.39-1.18-1.21-2.4c-.82-1.22-1.61-2.12-1.77-2.02Zm12,15.43c-.16.1.33,1.19,1.1,2.45s1.52,2.19,1.68,2.09-.33-1.19-1.1-2.45c-.77-1.25-1.52-2.19-1.68-2.09Zm11.28,22.85c-.17.07.03,1.02.46,2.13s.92,1.95,1.09,1.89-.03-1.02-.46-2.13c-.43-1.11-.92-1.95-1.09-1.89Zm12.29-17.43c-.19.02-.23,1-.09,2.19s.39,2.14.58,2.12.23-1,.09-2.19-.39-2.14-.58-2.12Zm-1.4-25.88c-.31,0-.59,1.36-.62,3.06s.2,3.07.51,3.08.59-1.36.62-3.06-.2-3.07-.51-3.08Zm4.92,16.76c-.37,1.32-.84,2.35-1.05,2.29s-.08-1.18.29-2.51.84-2.35,1.05-2.29.08,1.18-.29,2.51Zm12.51-12.8c-.37,1.32-.84,2.35-1.05,2.29s-.08-1.18.29-2.51.84-2.35,1.05-2.29.08,1.18-.29,2.51Zm-18.79,29.78c-.19,0-.36.96-.38,2.16s.11,2.17.29,2.18.36-.96.38-2.16-.11-2.17-.29-2.18Zm68.36-5.18c-2.33,1-4.34,1.51-4.5,1.14s1.6-1.48,3.92-2.48,4.34-1.51,4.5-1.14-1.6,1.48-3.92,2.48Zm-45.95,25.16c-.2-.35-2.15.36-4.36,1.6s-3.84,2.52-3.64,2.87,2.15-.36,4.36-1.6,3.84-2.52,3.64-2.87Zm34.81-33.05c-.29-.28-1.96.94-3.74,2.74s-2.99,3.49-2.7,3.77,1.96-.94,3.74-2.74c1.78-1.8,2.99-3.49,2.7-3.77Zm-8.73-19.83c-.37-.16-1.63,1.89-2.8,4.58s-1.83,5.01-1.46,5.17,1.63-1.89,2.8-4.58,1.83-5.01,1.46-5.17Zm-7.98,25.36c-.34-.22-1.9,1.62-3.48,4.1s-2.58,4.67-2.24,4.88,1.9-1.62,3.48-4.1,2.58-4.67,2.24-4.88Zm-9.2,16.7c-.44-.44-2.31.73-4.17,2.6-1.86,1.88-3,3.76-2.56,4.19s2.31-.73,4.17-2.6c1.86-1.88,3-3.76,2.56-4.19Zm29.53-38.48c-.25-.18-1.25.8-2.23,2.18s-1.57,2.65-1.31,2.83,1.25-.8,2.23-2.18,1.57-2.65,1.31-2.83Zm-5.35-7.3c-.16-.09-.69.58-1.18,1.5s-.75,1.72-.59,1.81.69-.58,1.18-1.5.75-1.72.59-1.81Zm17.01,14.66c-.21-.23-.89.05-1.51.63s-.95,1.23-.74,1.46.89-.05,1.51-.63.95-1.23.74-1.46Zm-24.87,6.71c-.25-.18-1.05.5-1.77,1.52s-1.1,1.99-.84,2.17,1.05-.5,1.77-1.52,1.1-1.99.84-2.17Zm-4.93-24.05c-.18-.06-.67,1.04-1.11,2.44s-.64,2.59-.46,2.64.67-1.04,1.11-2.44.64-2.59.46-2.64Zm-4.48,19.03c-.18-.06-.72,1.01-1.21,2.39s-.75,2.56-.58,2.62.72-1.01,1.21-2.39c.49-1.38.75-2.56.58-2.62Zm-10.71,23.13c-.16-.09-.77.67-1.37,1.7s-.94,1.94-.78,2.04.77-.67,1.37-1.7c.59-1.03.94-1.94.78-2.04Zm21.28-1.38c-.13-.13-.92.45-1.77,1.31s-1.42,1.65-1.29,1.78.92-.45,1.77-1.31,1.42-1.65,1.29-1.78Zm19.26-17.34c-.19-.25-1.43.4-2.77,1.44s-2.27,2.09-2.07,2.33,1.43-.4,2.77-1.44,2.27-2.09,2.07-2.33Zm-9.96,14.35c-1.26.54-2.36.82-2.45.62s.87-.81,2.13-1.35,2.36-.82,2.45-.62-.87.81-2.13,1.35Zm-39.34,17.74c-.69,1.19-1.4,2.07-1.59,1.96s.21-1.16.9-2.36,1.4-2.07,1.59-1.96-.21,1.16-.9,2.36Zm22.18-11.96c-.11-.15-.98.33-1.92,1.06s-1.62,1.45-1.51,1.6.98-.33,1.92-1.06c.95-.73,1.62-1.45,1.51-1.6Zm-118.16,53.45c2.53-.16,4.59.03,4.62.43s-2,.86-4.53,1.03-4.59-.03-4.62-.43,2-.86,4.53-1.03Zm51.72-8.34c.07.4,2.15.38,4.64-.05s4.46-1.09,4.39-1.49-2.15-.38-4.64.05-4.46,1.09-4.39,1.49Zm-43.86,19.5c.18.36,2.17-.23,4.44-1.34s3.98-2.29,3.81-2.65-2.17.23-4.44,1.34c-2.28,1.1-3.98,2.29-3.81,2.65Zm1.6,21.61c.29.28,2.16-1.24,4.17-3.38s3.4-4.11,3.11-4.38-2.16,1.24-4.17,3.38-3.4,4.11-3.11,4.38Zm16-21.23c.25.32,2.33-.89,4.65-2.7s3.99-3.53,3.75-3.85-2.33.89-4.65,2.7c-2.32,1.81-3.99,3.53-3.75,3.85Zm14.26-12.66c.27.56,2.42.09,4.8-1.06,2.38-1.15,4.08-2.54,3.81-3.1s-2.42-.09-4.8,1.06c-2.38,1.15-4.08,2.54-3.81,3.1Zm-40.7,26.39c.18.25,1.45-.33,2.83-1.31s2.36-1.98,2.18-2.23-1.45.33-2.83,1.31c-1.39.98-2.36,1.98-2.18,2.23Zm2.6,8.67c.12.14.84-.32,1.61-1.02s1.29-1.37,1.16-1.51-.84.32-1.61,1.02-1.29,1.37-1.16,1.51Zm-11.13-19.51c.12.29.85.25,1.63-.09s1.31-.84,1.19-1.13-.85-.25-1.63.09-1.31.84-1.19,1.13Zm25.69,1.99c.18.25,1.15-.12,2.17-.84s1.7-1.51,1.52-1.76-1.15.12-2.17.84-1.7,1.51-1.52,1.76Zm-3.4,24.31c.15.11.98-.75,1.86-1.93s1.47-2.22,1.32-2.34-.98.75-1.86,1.93-1.47,2.22-1.32,2.34Zm10.58-16.44c.14.12,1.01-.71,1.94-1.85s1.56-2.16,1.42-2.28-1.01.71-1.94,1.85c-.93,1.14-1.56,2.16-1.42,2.28Zm17.83-18.21c.12.14.95-.37,1.86-1.14s1.54-1.51,1.42-1.66-.95.37-1.86,1.14c-.9.77-1.54,1.51-1.42,1.66Zm-20.52-5.82c.08.17,1.02-.12,2.1-.64s1.89-1.08,1.81-1.25-1.02.12-2.1.64-1.89,1.08-1.81,1.25Zm-23.95,9.9c.1.3,1.48.1,3.09-.43s2.83-1.21,2.73-1.5-1.48-.1-3.09.43c-1.61.54-2.83,1.21-2.73,1.5Zm14.18-10.19c1.37-.09,2.5.02,2.51.24s-1.09.47-2.46.56-2.5-.02-2.51-.24,1.09-.47,2.46-.56Zm43.01-3.56c1.05-.89,2.01-1.48,2.15-1.31s-.59,1.03-1.64,1.92-2.01,1.48-2.15,1.31.59-1.03,1.64-1.92Zm-24.9,3.85c.06.18,1.03.02,2.17-.36s2.01-.82,1.96-1-1.03-.02-2.17.36-2.01.82-1.96,1Zm1.02,51.67c1.68-1.89,3.29-3.2,3.6-2.93s-.82,2.02-2.5,3.91-3.29,3.2-3.6,2.93.82-2.02,2.5-3.91Zm38.42-14.55c.4.04.92-1.97,1.16-4.49s.1-4.59-.3-4.63-.92,1.97-1.16,4.49-.1,4.59.3,4.63Zm-24.99,16.99c.38.14,1.38-1.69,2.23-4.07s1.23-4.43.85-4.56-1.38,1.69-2.23,4.07c-.85,2.38-1.23,4.43-.85,4.56Zm16.3,14.28c.4,0,.67-2.4.6-5.34s-.46-5.31-.86-5.3-.67,2.4-.6,5.34c.07,2.94.46,5.31.86,5.3Zm-3.49-26.36c.4.05,1.03-2.27,1.42-5.18s.37-5.32-.03-5.37-1.03,2.27-1.42,5.18-.37,5.32.03,5.37Zm1.27-19.03c.59.21,1.79-1.63,2.67-4.12.89-2.49,1.13-4.67.54-4.88s-1.79,1.63-2.67,4.12c-.89,2.49-1.13,4.67-.54,4.88Zm-10.49,47.36c.31.06.8-1.25,1.1-2.92s.3-3.07,0-3.12-.8,1.25-1.1,2.92-.3,3.07,0,3.12Zm7.94,4.35c.18,0,.38-.82.43-1.86s-.05-1.88-.23-1.89-.38.82-.43,1.86.05,1.88.23,1.89Zm-21.61-6.09c.29.12.78-.42,1.1-1.21s.34-1.52.06-1.63-.78.42-1.1,1.21-.34,1.52-.06,1.63Zm19.7-16.6c.31.06.74-.89.96-2.12s.15-2.27-.15-2.32-.74.89-.96,2.12-.15,2.27.15,2.32Zm14.64,19.71c.18-.03.17-1.23-.03-2.68s-.51-2.62-.7-2.59-.17,1.23.03,2.68.51,2.62.7,2.59Zm-3.99-19.14c.19-.02.22-1.22.09-2.68s-.4-2.64-.58-2.62-.22,1.22-.09,2.68c.14,1.46.4,2.64.58,2.62Zm-.07-25.48c.19.02.42-.93.52-2.12s.03-2.16-.15-2.18-.42.93-.52,2.12c-.1,1.19-.03,2.16.15,2.18Zm-18.7,10.25c.18.06.64-.8,1.05-1.93s.59-2.09.41-2.16-.64.8-1.05,1.93-.59,2.09-.41,2.16Zm-10.13,23.86c.28.14,1.13-.97,1.9-2.48s1.17-2.85.89-2.99-1.13.97-1.9,2.48-1.17,2.85-.89,2.99Zm2.96-17.21c.92-1.03,1.79-1.74,1.95-1.59s-.45,1.1-1.36,2.12-1.79,1.74-1.95,1.59.45-1.1,1.36-2.12Zm28.15-32.71c.12-1.37.39-2.47.61-2.45s.3,1.15.18,2.52-.39,2.47-.61,2.45-.3-1.15-.18-2.52Zm-15.04,20.22c.17.09.74-.71,1.29-1.78s.86-2,.69-2.08-.74.71-1.29,1.78c-.55,1.07-.86,2-.69,2.08Zm18.36,28.2c.18-.03.17-1.23-.03-2.68s-.51-2.62-.7-2.59-.17,1.23.03,2.68.51,2.62.7,2.59Zm72.99-60.22c-2.25-1.16-3.92-2.39-3.74-2.75s2.16.29,4.41,1.45,3.92,2.39,3.74,2.75-2.16-.29-4.41-1.45Zm-27.9-9.01c.15-.38-1.64-1.43-4-2.35s-4.39-1.36-4.53-.99,1.64,1.43,4,2.35,4.39,1.36,4.53.99Zm26.92-4.6c.04-.4-1.98-.92-4.5-1.15s-4.59-.09-4.63.31,1.98.92,4.5,1.15c2.52.23,4.59.09,4.63-.31Zm9.76-19.34c-.11-.39-2.49-.05-5.32.75s-5.03,1.77-4.92,2.16,2.49.05,5.32-.75c2.83-.8,5.03-1.77,4.92-2.16Zm-24.66,9.95c-.05-.4-2.45-.44-5.37-.08s-5.24.97-5.2,1.37,2.45.44,5.37.08c2.92-.36,5.24-.97,5.2-1.37Zm-18.74,3.51c.06-.62-2.03-1.32-4.66-1.56s-4.81.07-4.86.69,2.03,1.32,4.66,1.56c2.63.24,4.81-.07,4.86-.69Zm48.48-1.65c-.02-.31-1.41-.46-3.1-.34s-3.04.48-3.02.79,1.41.46,3.1.34,3.04-.48,3.02-.79Zm2.24-8.77c-.04-.18-.89-.16-1.9.04s-1.81.51-1.77.69.89.16,1.9-.04,1.81-.51,1.77-.69Zm-.52,22.45c.04-.31-.61-.65-1.45-.77s-1.56.04-1.6.35.61.65,1.45.77,1.56-.04,1.6-.35Zm-20.99-14.94c-.02-.31-1.05-.49-2.29-.4s-2.23.42-2.21.73,1.05.49,2.29.4,2.23-.42,2.21-.73Zm15.44-19.09c-.07-.17-1.23.14-2.59.7s-2.41,1.15-2.34,1.32,1.23-.14,2.59-.7,2.41-1.15,2.34-1.32Zm-17.54,8.63c-.06-.18-1.24.09-2.62.58s-2.45,1.04-2.39,1.22,1.24-.09,2.62-.58c1.38-.5,2.45-1.04,2.39-1.22Zm-24.66,6.42c-.03-.18-1.01-.17-2.18.02s-2.1.5-2.07.69,1.01.17,2.18-.02c1.17-.2,2.1-.5,2.07-.69Zm14.58,15.56c.02-.19-.94-.42-2.13-.53s-2.18-.05-2.19.14.94.42,2.13.53,2.18.05,2.19-.14Zm25.63,3.86c.07-.3-1.22-.85-2.87-1.22s-3.05-.42-3.12-.12,1.22.85,2.87,1.22c1.65.37,3.05.42,3.12.12Zm-17.41,1.43c-1.22-.63-2.13-1.3-2.03-1.5s1.17.16,2.4.79,2.13,1.3,2.03,1.5-1.17-.16-2.4-.79Zm-11.61-23.2c-1.36.23-2.49.23-2.52.02s1.03-.58,2.39-.8,2.49-.23,2.52-.02-1.03.58-2.39.8Zm-3.75,13.62c.04-.18-.87-.54-2.04-.81s-2.15-.33-2.19-.15.87.54,2.04.81c1.17.27,2.15.33,2.19.15Zm-24.63,59.19c-.27-2.52-.16-4.59.24-4.63s.94,1.96,1.21,4.48.16,4.59-.24,4.63-.94-1.96-1.21-4.48Zm10.82-8.31c.36-.19-.32-2.15-1.52-4.39s-2.45-3.89-2.81-3.7.32,2.15,1.52,4.39c1.19,2.23,2.45,3.89,2.81,3.7Zm21.52-2.48c.26-.31-1.33-2.11-3.55-4.03s-4.24-3.23-4.51-2.93,1.33,2.11,3.55,4.03c2.23,1.92,4.24,3.23,4.51,2.93Zm-21.87-15.12c.31-.26-.99-2.29-2.89-4.53-1.9-2.24-3.7-3.85-4-3.58s.99,2.29,2.89,4.53c1.9,2.24,3.7,3.85,4,3.58Zm-13.24-13.72c.55-.29-.01-2.42-1.26-4.75s-2.7-3.98-3.25-3.68.01,2.42,1.26,4.75,2.7,3.98,3.25,3.68Zm28.05,39.58c.25-.19-.39-1.43-1.42-2.78s-2.07-2.28-2.32-2.09.39,1.43,1.42,2.78,2.07,2.28,2.32,2.09Zm8.56-2.96c.13-.13-.36-.83-1.08-1.57s-1.43-1.23-1.56-1.1.36.83,1.08,1.57,1.43,1.23,1.56,1.1Zm-19.03,11.92c.28-.13.21-.86-.16-1.63s-.89-1.27-1.17-1.14-.21.86.16,1.63.89,1.27,1.17,1.14Zm.93-25.75c.25-.19-.17-1.15-.93-2.14s-1.58-1.64-1.82-1.45.17,1.15.93,2.14,1.58,1.64,1.82,1.45Zm24.43,2.39c.11-.15-.79-.95-2.01-1.78s-2.28-1.38-2.39-1.22.79.95,2.01,1.78,2.28,1.38,2.39,1.22Zm-16.86-9.9c.11-.15-.75-.98-1.93-1.87s-2.22-1.47-2.33-1.33.75.98,1.93,1.87c1.18.88,2.22,1.47,2.33,1.33Zm-18.93-17.06c.14-.13-.41-.94-1.22-1.81s-1.58-1.48-1.71-1.35.41.94,1.22,1.81c.81.87,1.58,1.48,1.71,1.35Zm-4.97,20.74c.16-.09-.16-1.02-.73-2.07s-1.16-1.84-1.32-1.75.16,1.02.73,2.07c.57,1.06,1.16,1.84,1.32,1.75Zm10.87,23.53c.29-.11.04-1.49-.56-3.07s-1.32-2.78-1.62-2.67-.04,1.49.56,3.07c.6,1.59,1.32,2.78,1.62,2.67Zm-10.77-13.75c-.15-1.37-.09-2.5.13-2.52s.51,1.07.66,2.43.09,2.5-.13,2.52-.51-1.07-.66-2.43Zm.82,24.48c-.09-1.37.02-2.5.24-2.51s.47,1.09.55,2.46-.02,2.5-.24,2.51-.47-1.09-.55-2.46Zm-1.27-42.58c.17-.07-.03-1.03-.45-2.15s-.9-1.98-1.08-1.91.03,1.03.45,2.15.9,1.98,1.08,1.91Z"/></g>
    <g id="lowouter">
      <path id="outline-4" data-name="outline" class="le-4" d="m336.32,296.41c1.35-.95,16.69,14.41,25.58,35.79,1.7,4.09,2.83,7.83,5.1,15.3,3.48,11.48,6.79,22.36,8.1,33.6,2.2,18.78-1.72,33.83-3.6,40.8-3.13,11.61-10.1,30.29-26.1,48-4.8,5.31-18.39,19.37-40.8,29.1-4.91,2.13-29.14,12.26-61.8,9.3-34.62-3.14-62.07-21.26-61.8-21.9.03-.07,6.87,3.96,17.4,6.3,14.69,3.26,36-.9,36-.9,21.47-4.24,38.23-12.84,49.2-19.8,5.04-3.19,17.52-11.55,30.6-25.8,9.22-10.05,29.65-32.87,35.7-66.9,1.78-10.02,1.81-18.14,1.8-22.8-.01-9.09-.29-26.13-8.1-45-4.17-10.07-7.99-14.59-7.28-15.09Z"/>
      <path id="spots-2" data-name="spots" class="le-5" d="m365.21,370.96c-2.5,1.43-5.23,1.36-6.1-.16s.45-3.92,2.94-5.36,5.23-1.36,6.1.16-.45,3.92-2.94,5.36Zm-124.83,128.75c-1.09,2.67-2.72,4.53-3.63,4.15s-.77-2.84.32-5.5,2.72-4.53,3.63-4.15.77,2.84-.32,5.5Zm120.26-103.77c-1.33,2.55-4.07,3.76-6.12,2.69s-2.63-4-1.3-6.56,4.07-3.76,6.12-2.69,2.63,4,1.3,6.56Zm-12.45,54.5c-2.13,1.97-4.79,2.89-5.93,2.05s-.34-3.12,1.8-5.09,4.79-2.89,5.93-2.05.34,3.12-1.8,5.09Zm-81.98,51.22c-2.9.57-5.47-.15-5.75-1.6s1.84-3.09,4.74-3.65c2.9-.57,5.47.15,5.75,1.6s-1.84,3.09-4.74,3.65Zm71.36-62.64c-2,1.91-4.22,3.03-4.96,2.51s.29-2.49,2.3-4.4,4.22-3.03,4.96-2.51-.29,2.49-2.3,4.4Zm-37.8,37.12c-2.8-.55-4.82-1.67-4.51-2.48s2.82-1.03,5.61-.47,4.82,1.67,4.51,2.48-2.82,1.03-5.61.47Zm28.18-1.87c-2.17,1.21-4.23,1.45-4.6.52s1.09-2.65,3.25-3.86,4.23-1.45,4.6-.52-1.09,2.65-3.25,3.86Zm31.6-54.11c1.91,2.23,2.7,4.51,1.75,5.09s-3.26-.76-5.17-2.99-2.7-4.51-1.75-5.09,3.26.76,5.17,2.99Zm-63.74,70.86c-2.13,1.97-4.79,2.89-5.93,2.05s-.34-3.12,1.8-5.09,4.79-2.89,5.93-2.05.34,3.12-1.8,5.09Zm17.21-29.58c-.06-2.85.58-5.06,1.44-4.94s1.61,2.53,1.68,5.38c.06,2.85-.58,5.06-1.44,4.94s-1.61-2.53-1.68-5.38Z"/></g></g></svg>