<?xml version="1.0" encoding="UTF-8"?>
<svg id="Layer_2" data-name="Layer 2" xmlns="http://www.w3.org/2000/svg" viewBox="0 0 706.47 706.47">
  <defs>
    <style>.p-1 {fill: #feb37e;}.p-2 {fill: #54a103;}.p-3 {fill: #923e18;}.p-4 {fill: #a64824;}.p-5 {fill: #ff7a49;}.p-6 {fill: #478802;}.p-7 {fill: #ef5a3e;}.p-8 {fill: #ff8150;}.p-9 {fill: #3a6c03;}.p-10 {fill: #ff9362;}.p-11 {fill: #b5683d;}
  </style>
  </defs>
  <g id="peach">
    <path class="p-10" d="m406.81,230.82c58.61,21.48,79.73,76.03,81.88,81.88,27.26,74.05-23.16,136.37-25.41,139.06-8.43,10.06-34.51,38.21-77.65,46.59-44.97,8.74-80.26-9.48-98.82-19.06-20.23-10.44-48.25-24.91-64.94-57.18-30.24-58.48,5.15-120.52,7.76-124.94,2.55-4.3,14-23.1,36.71-40.24,11.37-8.58,71.49-51.4,140.47-26.12Z"/>
  <g id="peachshine">
    <path class="p-5" d="m264.87,268.24c5.49-.54,11.76,5.54,11.7,10.89-.04,3.9-3.41,5-9.14,11.3-10.37,11.4-9.22,18.69-16.09,21.38-5.79,2.27-14.08.03-16.09-4.84-1.48-3.6,1.5-6.12,21.94-33.09,1.55-2.05,4-5.29,7.68-5.65Z"/>
    <path class="p-5" d="m337.28,231.18c10.17-1.84,22.38-3.9,37.41.35,8.96,2.54,17.85,5.06,20.12,12.35,1.45,4.68.14,11.2-3.88,13.76-5.74,3.65-11.5-4.26-26.12-6.71-15.57-2.6-20.73,4.43-32.82-.71-6.03-2.56-13.15-7.87-12.35-12,.77-4.01,8.73-5.45,17.65-7.06Z"/></g>
    <path class="p-8" d="m488.69,316.24c14.32,50.09,4.27,124.29-50.12,163.76-8.28,6.01-43.67,30.86-90.35,24-9.42-1.38-39.76-6.3-64.24-32.47-32.29-34.53-28.31-78.21-27.53-85.41,2.7-25.01,15.88-64.77,44.47-75.53,12.34-4.65,33.43-6.1,37.41-6.35,18.17-1.14,21.69,1.46,31.76-2.12,16.55-5.88,27.2-20.03,29.65-23.29,7.76-10.33,7.08-15.21,14.82-21.18,8.51-6.56,18.69-7.86,23.29-7.76,23.34.5,43.28,39.97,50.82,66.35Z"/>
    <path class="p-10" d="m298.81,341.65c15.25-15.92,37.6-14.23,38.82-14.12,9.11.83,7.62,3.62,16.24,4.24,18.75,1.35,35.77-11.13,46.59-19.06,5.09-3.73,4.64-3.96,9.18-7.06,10.36-7.07,19.98-13.63,31.06-13.41,16.97.34,28.32,16.41,29.65,18.35,2.93,4.28,8.72,14.42,6.35,43.76-2.09,25.91-3.75,46.47-18.35,68.47-4.94,7.45-23.95,36.08-61.41,44.47-5.74,1.29-48.58,10.12-81.88-19.76-21.39-19.2-30-46.43-28.94-69.18.44-9.5,1.14-24.63,12.71-36.71Z"/>
    <path class="p-7" d="m406.1,262.59c-4.99,7.99-14.14,21.22-26.12,31.06-3.08,2.53-6.51,4.96-11.29,6.35-6.79,1.97-11.1.32-19.06-.71-1.9-.25-18.15-2.21-34.59,2.12-1.45.38-9.05,2.43-17.05,6.9-21.47,11.98-30.85,32.99-34.48,41.1-3.92,8.79-12.9,32.22-7.76,60.71,7.69,42.63,41.88,68.26,38.12,72-2.06,2.04-13.24-4.6-21.88-12.71-29.6-27.77-27.3-70.79-26.82-79.76.46-8.56,2.24-35.42,20.47-60,4.53-6.11,13.79-18.31,30.12-26.35,7.41-3.65,14.54-5.59,19.29-6.59,10.12-2.13,18.22-1.87,24-1.65,10.51.4,11.73,2.52,18.12,2.12,8.23-.51,15.54-4.6,22.35-9.65,4.11-3.05,4.57-4.12,15.53-14.59,4.61-4.41,8.46-7.97,11.06-10.35Z"/>
  <g id="peachshine2">
      <path class="p-1" d="m343.28,307.06c.14-2.69,21.34,1.64,40.47-7.53,19.84-9.51,27.93-28.96,30.59-27.29,1.67,1.04-.86,9.08-4.71,15.06-5.48,8.52-13.2,12.2-21.18,16-8.2,3.9-14.54,5.12-22.24,6.59-6.07,1.16-11.26,1.65-17.12,0-1.9-.53-5.89-1.65-5.82-2.82Z"/>
      <path class="p-1" d="m288.75,326.47c1.52.84-13.79,20.62-16.76,50.29-2.03,20.23,2.57,36.19,4.06,40.94,7.22,23.06,21.18,37.46,20.29,38.12-.67.5-8.79-7.53-15.88-18.71-5.27-8.31-16.07-25.83-15.88-50.29.12-16.48,5.17-28.63,7.94-35.12,6.14-14.38,15.08-25.88,16.24-25.24Z"/></g></g>
  <g id="leaf">
    <path class="p-2" d="m360.93,286.76c-.45.85-2.38.64-3.35.53-11.1-1.23-18.08,1.07-25.47-3.99-1.21,0-2.41-.03-3.61-.21-.8-.12-1.58-.3-2.37-.49-.65-.15-1.31-.31-1.96-.46-2.19-.02-4.54-.28-6.82-1.21-2.83-1.15-6.45-1.1-13.24-3.53-14.89-5.32-27.88-13.75-29.29-14.65-8.81-5.57-26.82-17.23-35.82-35.12-.98-1.94-2.06-4.27-3-7.59-3.15-11.09-.89-20.98.88-26.47,3.06,3.05,7.89,7.52,14.38,12.18,4.37,3.13,6.57,4.24,20.65,12.26,0,0,10.59,6.03,21.79,12.62,15.4,9.05,16.88,10.23,18.26,11.65,12.39,12.5,17.21,27.35,17.33,29.19.3.32.43.69.55,1.23.11.86.16,1.73.19,2.6,1.14,1.76,2.66,3.82,3.63,5.44,3.42,5.71,12.81,3.47,14.29,3.97,1.6.54,5.49.71,7.68.35.36-.06.96.35,1.76.26,1.31-.14,1.74-.99,2.47-.79.8.21,1.42,1.52,1.06,2.21Z"/>
    <path class="p-6" d="m250.67,202.92c5.94,4.4,17.32,12.83,27.97,19.37,15.36,9.42,15.07,6.23,25.1,13.39,13.95,9.97,20.46,20.4,22.77,24.43,4.5,7.87,9.59,20.41,6.45,22.81-1.31,1-3.66-.06-17.21-8.51-10.66-6.64-16-9.97-19.54-12.49-3.71-2.64-14.27-10.2-24.02-19.37-21.94-20.61-37.15-46.86-34.78-48.87.72-.61,2.65,1.36,13.27,9.23Z"/>
    <path class="p-9" d="m249.7,215.44c5.8,7.66,11.59,16.57,18.74,24.19-1.49-5.87-3.25-11.67-5.26-17.38,2.92,6.29,5.85,12.57,8.77,18.86.45.96.91,1.94,1.62,2.73.8.89,1.88,1.48,2.91,2.08,5.28,3.07,10.12,6.89,14.33,11.31-.91-5.35-2.29-10.61-4.12-15.72,1.6,3.34,3.2,6.67,4.8,10.01,1.18,2.46,2.38,4.95,4.01,7.14,3.33,4.49,8.26,7.47,13.06,10.34-.88-3.24-2.72-6.13-4.08-9.2s-2.22-6.62-1.04-9.77c2.39,6.17,4.79,12.35,7.18,18.52.41,1.06.84,2.16,1.63,2.98.95,1,2.31,1.49,3.6,1.98,6.17,2.33,12.06,5.38,17.53,9.08-6.98-1.53-13.66-4.46-19.52-8.55-.92-.64-1.84-1.32-2.91-1.63-.97-.28-1.99-.25-3-.28-4.59-.12-9.13-1.53-12.99-4.02,3.71,1.23,7.58,1.98,11.49,2.22-2.71-2.92-6.32-4.81-9.86-6.65-1.4-.73-2.82-1.46-4.37-1.79-1.59-.33-3.23-.22-4.85-.34-4.74-.37-9.05-2.76-13.19-5.11,4.95,1.76,10.16,2.75,15.41,2.95.45-.73-.33-1.59-1.03-2.08-5.47-3.89-10.93-7.77-16.4-11.66-.66-.47-1.33-.94-2.07-1.28-.97-.44-2.03-.62-3.07-.82-5.43-1.06-10.72-2.88-15.66-5.37,5.12,1.19,10.24,2.37,15.36,3.56-17.26-20.69-35.41-54.61-26.25-40.9,3.02,4.51,5.08,9.13,9.24,14.61Z"/></g>
  <g id="stem">
    <path class="p-4" d="m353.87,273.71c-2.12-2.83-4.64-4.41-4.24-6.88.56-3.39,6.06-4.94,6.71-5.12,4.84-1.36,12.28-.51,14.82,3.88,3.12,5.4-3.91,11.36-.35,19.76.91,2.16,1.94,3.1,1.59,4.76-.86,4.08-8.97,7.71-12.88,5.29-4.88-3.02,1.06-12.77-5.65-21.71Z"/>
    <path class="p-3" d="m352.6,263.29c1.62.87,2.63,2.45,3.12,4.15.49,1.71.53,3.51.7,5.28.51,5.23,2.23,10.29,4.4,15.11,1.06,2.35,2.25,4.79,2.01,7.35-.03.28-.08.58-.31.76-.22.17-.53.17-.8.13-2.6-.4-3.65-3.41-4.19-5.92-.82-3.79-1.63-7.58-2.45-11.36-.44-2.04-.93-4.19-2.38-5.74-.81-.87-1.88-1.5-2.57-2.47-1.92-2.71.64-5.42,2.47-7.29Z"/>
    <path class="p-11" d="m365.35,264.12c1.06.1,2.19.51,2.71,1.44.4.71.36,1.57.31,2.39-.16,2.49-.38,4.98-.67,7.45-.21,1.88-.46,3.79-.11,5.65.66,3.47,3.33,6.37,3.63,9.88-4.73-5.89-6.4-13.6-7.93-21-.39-1.89-1.03-3.91-1.12-5.82.97-.17,2.17-.09,3.18,0Z"/></g></svg>