<?xml version="1.0" encoding="UTF-8"?>
<svg xmlns="http://www.w3.org/2000/svg" xmlns:xlink="http://www.w3.org/1999/xlink" viewBox="0 0 400 400">
  <defs>
    <style>.rb-1 {fill: #e43861;}.rb-2 {fill: none;}.rb-2, .rb-3 {stroke: #903;stroke-miterlimit: 10;stroke-width: 4px;}.rb-4 {fill: #5c7800;}.rb-5 {fill: #6a8b01;}.rb-6{fill: #5f780d;}.rb-3 {fill: #cc133f;}.rb-7 {fill: #eb6e8c;}.rb-8 {fill: #6b8c01;}.rb-9 {fill: #8cb900;}.rb-10 {fill: #6e8e00;}.rb-11 {fill: #e01f4c;}
    </style>
  </defs>
  <g id="raspberry">
    <g id="green">
      <path class="rb-9" d="m111.74,138.85c4.63.46,6.13,2.46,11.25,3.04.77.09,2.41.23,7.76-.45,9.4-1.19,9.79-2.32,13.61-2.47,10.97-.44,22.21,8.29,25.88,11.14,1.39,1.08,4.1,3.29,4.61,2.81.83-.76-6.23-6.51-6.08-14.4.07-3.81,1.75-4.34,1.46-8.55-.24-3.49-1.45-3.97-3.04-9.45-.66-2.29-1.7-5.96-1.69-10.12,0-3.69.83-4.33,2.25-10.58,2.39-10.51,1.2-13.75,4.39-16.42,2.61-2.19,6.38-2.52,6.98-1.58.76,1.22-4.15,3.89-5.85,9.45-1.01,3.29-.46,6.19.79,10.8,3.45,12.74,5.7,14.36,7.88,22.84,2.17,8.45.55,9.26,3.38,19.01.79,2.72,2.05,7.02,4.61,12.26,2.6,5.32,3.71,5.83,7.31,12.26,5.38,9.62,4.76,11.82,6.86,12.38,7.11,1.89,22.7-21.07,18-31.28-.54-1.18-1.98-3.55-2.59-7.31-.79-4.95.38-9.13.67-9.11.24.01-.19,2.88,1.01,6.75.71,2.28,1.3,4.2,2.14,4.28,2.82.25,8.34-20.68,9-36.56.26-6.12-.34-8.35.68-14.29.82-4.81,1.84-7.01.67-10.12-1.27-3.41-3.73-3.41-5.17-7.43-1.56-4.32-1.1-8.69-.56-8.77.44-.07.94,2.71,3.38,7.88,1.01,2.14,1.52,3.21,1.8,3.15.88-.2,1-9.37-2.48-18.23-1.97-5-5.02-12.78-12.26-18.45-2.17-1.7-5.6-3.9-5.18-6.07.2-1.02,1.48-1.99,4.05-3.94,1.79-1.35,2.68-2.03,3.15-2.14,5.01-1.13,12.76,15.25,14.06,18,1.65,3.49,4.04,8.61,5.85,15.86,2.32,9.3,2.55,17.59,2.59,20.36.1,8.1-.91,13.4.34,13.72,1.36.35,4.35-5.46,4.95-6.64,1.36-2.64,1.68-4.11,1.91-4.05.51.13-.97,7.29-2.81,12.82-.21.63-1.88,5.55-3.71,6.41-.13.06-.72.31-1.01.9-.38.75-.06,1.61,0,1.8.71,2.14-1.42,8.69-2.25,11.47-1.05,3.53-.13,1.61-2.7,13.16-1.12,5.04-1.45,6.05-2.25,10.12-1.18,6-.91,6.02-1.69,8.44-.78,2.42-1.59,4.05-1.01,4.5.8.62,3.36-1.4,3.71-1.69,2.02-1.62,2.83-3.32,2.92-3.26.14.09-.97,4.03-4.39,6.75-1.6,1.28-2.52,1.34-3.49,2.81-.36.55-.68,1.23-1.35,4.5-.62,3.06-.93,4.59-.79,4.84,1.65,2.81,21.35-4.98,43.2-17.1,5.14-2.85,25.31-14.23,27-24.47.88-5.35-1.12-9.39-1.12-9.39-.46-.92-1.54-3.04-3.83-4.44-2.09-1.28-4.03-1.26-4.01-1.37.03-.17,5.06-.77,9.3,2.1,3.53,2.39,4.72,5.82,5.4,7.8,2.16,6.25.23,11.76-.3,13.2-1.61,4.4-4.34,7.1-6.3,9-10.56,10.24-15.83,15.36-22.2,19.8-11.07,7.72-22.2,13.8-22.2,13.8-6.44,3.51-10.53,5.35-10.2,6.6.43,1.6,7.48-.39,21,.3,9.28.47,11.45,1.69,16.2,0,5.48-1.95,5.31-4.54,11.1-6.3,6.27-1.9,7.78.74,13.8-1.5,5.23-1.94,8.49-5.56,9.6-6.9,3.21-3.87,3.82-7.32,4.2-7.2.66.21.36,11.21-6.3,20.1-1.86,2.48-6.85,8.32-19.8,12.3-6.26,1.92-16.62,4.09-44.1,0-30.14-4.49-51.17-12.09-55.8-13.8-16.69-6.17-14.51-7.55-26.1-10.8-8.18-2.29-14.2-3-17.1-8.1-2.74-4.82-.56-9.83-4.2-12.3-1.32-.9-1.92-.45-8.4-.9-3.82-.27-6.25-.61-10.5-1.2-6.85-.96-8.87-1.64-10.8-3-1.68-1.18-1.69-1.75-3.3-3-3.29-2.56-7.15-3.22-10.2-3.3,3.68-1.26,6.55-1.27,8.4-1.09Z"/>
      <path class="rb-10" d="m159.41,168.81c-3.48-1.05-7.33-2.41-8.91-5.68-1.12-2.32-.79-5.07-1.38-7.58-.26-1.12-.75-2.26-1.69-2.93-.61-.44-1.35-.65-2.07-.84-3.45-.95-6.94-1.9-10.51-2.13-2.48-.16-4.98.02-7.45-.22-4.75-.46-9.25-2.46-13.16-5.2-2.05-1.43-4.12-3.14-6.61-3.32-1.56-.12-3.11.46-4.09-.76,1.89-.58,3.89-1.16,5.81-.67,1.42.36,2.63,1.28,3.86,2.08,8.86,5.8,20.22,6.34,30.69,4.8,1.41-.21,2.84-.45,4.25-.25,2.24.32,4.15,1.72,5.96,3.08,3.64,2.73,7.29,5.47,10.93,8.2,2.7,2.02,5.43,4.08,7.54,6.71,1.11,1.38,2.06,3.01,2.07,4.78s-1.24,3.63-3.01,3.78c-4.22-1.27-8.02-2.56-12.24-3.83Z"/>
      <path class="rb-6" d="m169.87,139.98c.64-.07,3.13,1.94,3.82,2.29,1.35.7,2.71,1.39,3.91,2.34,1.11.88,2.18,2.03,3.6,2.09,1.89.09,3.24-1.79,3.97-3.53.82,2.64,1.63,5.28,2.45,7.92.4,1.29.8,2.58,1.38,3.8,2.14,4.5,6.56,7.62,8.55,12.19.8,1.83,1.17,3.81,1.44,5.78.18,1.32.23,2.91-.83,3.72-.86.66-2.08.5-3.15.31-3.54-.63-7.08-1.27-10.62-1.9-2.99-.54-6.04-1.09-8.69-2.58s-4.87-4.1-5.04-7.13c-.11-1.95.61-3.85.79-5.79.29-3.09-.8-6.13-1.96-9.01,2.3.75,3.22,3.96,5.59,4.45-.63-2.49-1.56-4.9-2.76-7.18-.47-.9-4.42-7.55-2.42-7.77Z"/>
      <path class="rb-4" d="m253.11,173.62c1.38,1.88,3.37,3.44,5.69,3.79-.84,1.94-2.54,3.37-4.26,4.61-4.67,3.38-10.13,5.98-15.9,6.12s-11.82-2.6-14.5-7.7c-.26-.5-.5-1.03-.49-1.6,0-1.58,1.73-2.52,3.22-3.06,5.24-1.91,10.67-3.24,15.97-4.97,1.84-.6,4.58-2.29,6.56-2.06s2.67,3.45,3.71,4.87Z"/>
      <path class="rb-5" d="m238.48,110.24c.32-5.2.64-10.39.96-15.59.38-6.24.77-12.52.02-18.72-1.02-8.47-4.1-16.53-7.16-24.49-.78-2.04-1.57-4.09-2.57-6.04-.85-1.66-1.85-3.23-2.85-4.8-2.44-3.83-4.97-7.46-8.66-10.1.77-1.25,2.49-1.82,3.86-1.26.79.32,1.41.95,1.98,1.58,3.94,4.37,6.57,9.75,9.08,15.07,3.96,8.4,7.77,16.95,9.7,26.03,1.77,8.32,1.93,16.98.45,25.36,2.55-2.98,4.66-6.35,6.23-9.95.4,7.25-2.31,14.62-7.31,19.89-.13,9.16-2.2,18.15-4.47,27.03-1.88,7.34-3.75,14.68-5.63,22.02,2.16-2.03,4.33-4.06,6.49-6.1.92,3.97-1.41,8.3-5.15,9.95-.56.25-1.17.45-1.58.9-.41.44-.58,1.06-.72,1.65-.61,2.42-1.22,4.85-1.83,7.27,14.89-4.46,29.38-10.27,43.22-17.33,8.37-4.27,16.73-9.18,22.45-16.63,3-3.9,5.24-8.74,4.63-13.62s-4.88-9.48-9.78-9.12c2.18-1.25,5.03-1.22,7.18.08,2.86,1.74,4.12,5.25,4.5,8.58,1.13,9.99-3.97,19.92-11.29,26.81s-16.65,11.22-25.97,15.01c-17.25,7.02-35.11,12.63-53.41,16.09-1.08.2-2.28.38-3.22-.19-1.07-.65-1.43-2.09-1.18-3.32s1-2.29,1.72-3.31c3.02-4.27,6.04-8.54,9.07-12.81,1.65,1.85,4.64,2.04,6.84.89s3.65-3.37,4.48-5.7,1.12-4.81,1.56-7.25c2.33-12.88,9.01-25.25,7.64-38.27.27-.06.67.12.73.39Z"/>
      <path class="rb-8" d="m263.83,184.69c5.14,1.03,10.46,1.44,15.61.46,6.13-1.16,11.74-4.22,17.77-5.84,5.46-1.46,11.48-1.84,15.95-5.3,3.3-2.56,5.24-6.46,6.93-10.28,1.34,6.26-2.43,12.73-7.66,16.43s-11.66,5.18-17.92,6.48c-7.51,1.56-15.05,2.97-22.61,4.24-5.39.9-10.86,1.73-16.3,1.14-1.01-.11-2.04-.28-2.93-.77s-1.62-1.38-1.67-2.4c-.12-2.24,2.89-3.74,4.69-4.41,2.6-.97,5.53-.28,8.15.24Z"/></g>
    <g id="r1">
      <g id="b1">
        <path class="rb-3" d="m156.48,191.59c-9.91,12.05-25.1,15.93-33.94,8.67-8.83-7.26-7.96-22.92,1.95-34.97,9.91-12.05,25.1-15.93,33.94-8.67,8.83,7.26,7.96,22.92-1.95,34.97Z"/>
        <path class="rb-11" d="m163.18,178.79c-1.7.89-3.81,3.13-9.52-2.89-.74-.78-2.24-.02-3.33.1-4.35.48-7.14,3.53-10.52,6.03-6.06,4.47-16.34,1.48-17.66-6.11-.06-.36-.2-.65-.38-.9-.08-2.17.18-4.36.76-6.51,7.21-8.61,18.35-17.63,28.77-14.4.43.13.85.1,1.23-.05,1.46.69,2.85,1.56,4.14,2.63,6.57,5.41,8.85,14.16,6.5,22.09Z"/>
        <path class="rb-2" d="m156.48,191.59c-9.91,12.05-25.1,15.93-33.94,8.67-8.83-7.26-7.96-22.92,1.95-34.97,9.91-12.05,25.1-15.93,33.94-8.67,8.83,7.26,7.96,22.92-1.95,34.97Z"/>
        <path class="rb-1" d="m160.52,165.7c.07,1.67-1.44,3.71-3.11,4.36-1.37.53-2.12-.16-3.9-.45-3.23-.51-4.73,1.16-7.62,1.48-4.56.49-9.82-2.7-9.59-6.23.23-3.39,5.47-6.14,6.4-6.63.36-.19,6.63-3.38,10.83-.77,1.76,1.09,1.09,1.92,4.42,5.01,1.64,1.53,2.52,1.99,2.57,3.22Z"/>
        <path class="rb-7" d="m139.73,163.38c-.19-2.11,2.79-4.2,5.23-4.84,2.63-.7,4.84.22,5.93.67,2.67,1.11,5.95,3.66,5.46,5.48-.26.99-1.56,1.44-3.47,2.09-1.13.39-3.1,1.06-5.64.8-2.56-.27-7.28-1.66-7.51-4.2Z"/></g>
      <g id="b2">
        <path class="rb-3" d="m181.52,195.67c-6.75,11.21-20.02,15.59-29.65,9.79-9.63-5.8-11.97-19.58-5.22-30.79,6.75-11.21,20.02-15.59,29.65-9.79s11.97,19.58,5.22,30.79Z"/>
        <path class="rb-11" d="m185.14,184.01c-1.39.89-2.9,2.99-9.39-1.92-.84-.63-2.08.12-3.06.3-3.93.7-5.9,3.56-8.52,5.97-4.7,4.31-14.82,2.36-17.57-4.22-.13-.31-.31-.56-.53-.76-.51-1.9-.71-3.84-.6-5.75,4.94-8.02,13.43-16.64,23.73-14.48.43.09.81.03,1.13-.12,1.49.51,2.95,1.19,4.36,2.04,7.17,4.32,11.03,11.84,10.45,18.95Z"/>
        <path class="rb-2" d="m181.52,195.67c-6.75,11.21-20.02,15.59-29.65,9.79-9.63-5.8-11.97-19.58-5.22-30.79,6.75-11.21,20.02-15.59,29.65-9.79s11.97,19.58,5.22,30.79Z"/>
        <path class="rb-1" d="m180.05,172.71c.4,1.46-.59,3.35-2,4.02-1.16.56-1.99,0-3.7-.14-3.09-.24-4.14,1.33-6.75,1.79-4.12.73-9.63-1.73-10.12-4.84-.47-2.99,3.83-5.74,4.59-6.23.3-.19,5.46-3.39,9.87-1.38,1.85.85,1.4,1.62,5.09,4.11,1.83,1.23,2.73,1.58,3.03,2.66Z"/>
        <path class="rb-7" d="m160.35,172.02c-.6-1.84,1.74-3.86,3.86-4.58,2.29-.78,4.53-.12,5.62.21,2.7.8,6.24,2.83,6.15,4.45-.05.89-1.16,1.36-2.79,2.06-.97.41-2.65,1.13-5.06,1.06-2.42-.07-7.07-.98-7.79-3.2Z"/></g>
      <g id="b3">
        <path class="rb-3" d="m210.88,197.67c-3.63,12.57-15.33,20.22-26.13,17.1-10.8-3.12-16.61-15.84-12.98-28.4,3.63-12.57,15.33-20.22,26.13-17.1,10.8,3.12,16.61,15.84,12.98,28.4Z"/>
        <path class="rb-11" d="m210.57,186.35c-1.15,1.36-2.13,4.02-9.53.9-.95-.4-1.98.77-2.9,1.26-3.65,1.95-4.9,5.55-6.9,8.87-3.57,5.96-13.81,7.05-17.97,1.03-.2-.28-.43-.49-.69-.63-.92-1.82-1.56-3.79-1.89-5.83,2.97-9.9,9.23-21.55,19.69-22.47.44-.04.79-.22,1.07-.48,1.55.08,3.13.33,4.69.78,7.92,2.29,13.37,8.96,14.43,16.56Z"/>
        <path class="rb-2" d="m210.88,197.67c-3.63,12.57-15.33,20.22-26.13,17.1-10.8-3.12-16.61-15.84-12.98-28.4,3.63-12.57,15.33-20.22,26.13-17.1,10.8,3.12,16.61,15.84,12.98,28.4Z"/>
        <path class="rb-1" d="m203.05,176.91c.78,2.06-.07,5.55-1.68,7.39-1.33,1.51-2.47,1.08-4.61,1.82-3.87,1.33-4.86,4.35-8,6.5-4.96,3.4-12.26,2.59-13.48-2.01-1.18-4.42,3.6-11.08,4.45-12.25.33-.46,6.08-8.3,11.94-7.57,2.46.3,2.05,1.76,7.12,3.63,2.5.92,3.7.97,4.27,2.49Z"/>
        <path class="rb-7" d="m181.21,186.67c-.91-2.59,1.54-7.29,3.89-9.76,2.55-2.67,5.19-2.98,6.49-3.13,3.2-.37,7.51.71,7.61,3.38.05,1.46-1.17,2.91-2.96,5.03-1.07,1.26-2.91,3.46-5.69,4.83-2.8,1.38-8.25,2.77-9.35-.35Z"/></g>
      <g id="b4">
        <path class="rb-3" d="m239.91,204.73c-1.03,15.7-10.96,27.82-22.18,27.09-11.22-.74-19.47-14.06-18.44-29.76,1.03-15.7,10.96-27.82,22.18-27.09s19.47,14.06,18.44,29.76Z"/>
        <path class="rb-11" d="m237.95,190.31c-.85,1.73-1.26,4.81-9.27,3.25-1.03-.2-1.8,1.3-2.61,2.04-3.2,2.95-3.69,7.1-4.96,11.14-2.28,7.23-12.21,10.84-17.62,5.41-.25-.26-.53-.42-.81-.51-1.3-1.73-2.35-3.67-3.11-5.77.84-11.29,4.59-25.23,14.77-28.73.42-.15.74-.42.96-.76,1.56-.29,3.17-.4,4.82-.29,8.35.55,15.17,6.37,17.84,14.24Z"/>
        <path class="rb-2" d="m239.91,204.73c-1.03,15.7-10.96,27.82-22.18,27.09-11.22-.74-19.47-14.06-18.44-29.76,1.03-15.7,10.96-27.82,22.18-27.09s19.47,14.06,18.44,29.76Z"/>
        <path class="rb-1" d="m228.34,181.17c1.01,1.33.97,3.88,0,5.4-.79,1.25-1.79,1.11-3.38,1.94-2.88,1.49-3.12,3.74-5.25,5.7-3.36,3.09-9.4,3.58-11.23.56-1.76-2.91.86-8.25,1.33-9.19.18-.37,3.37-6.67,8.22-7.01,2.04-.14,1.97.93,6.4,1.5,2.19.28,3.16.14,3.9,1.12Z"/>
        <path class="rb-7" d="m210.38,191.53c-1.36-1.62-.17-5.08,1.41-7.04,1.7-2.12,4-2.67,5.12-2.94,2.77-.66,6.85-.51,7.5,1.26.36.97-.43,2.1-1.57,3.75-.68.99-1.87,2.7-4.05,3.98-2.2,1.29-6.77,2.94-8.41.99Z"/></g>
      <g id="b6">
        <path class="rb-3" d="m282.3,191.5c12.45,6.5,16.3,23.7,8.62,38.41-7.68,14.71-24,21.37-36.45,14.87-12.45-6.5-16.3-23.7-8.62-38.41,7.68-14.71,24-21.37,36.45-14.87Z"/>
        <path class="rb-11" d="m283.14,193.36c1.83.95,3.5,2.08,5,3.34.04.45.23.89.6,1.3,8.97,9.63,5.18,24.51-.24,35.16-1.99,1.39-4.21,2.46-6.57,3.18-.36-.1-.74-.13-1.16-.06-8.84,1.42-17.47-8.16-15.87-16.09.89-4.43,2.69-8.45.91-13.14-.45-1.18-.43-3.02-1.65-3.49-9.47-3.71-8.17-6.73-8.12-8.82,7.26-5.35,17.84-6.21,27.11-1.37Z"/>
        <path class="rb-2" d="m282.3,191.5c12.45,6.5,16.3,23.7,8.62,38.41-7.68,14.71-24,21.37-36.45,14.87-12.45-6.5-16.3-23.7-8.62-38.41,7.68-14.71,24-21.37,36.45-14.87Z"/>
        <path class="rb-1" d="m276.72,195.16c5.84,2.53,6.68.96,9.02,2.7,5.58,4.15,4.11,15.5,4.02,16.17-.24,1.69-1.58,11.25-6.18,14.06-4.78,2.92-11.67-2.33-13.13-9.27-.92-4.39.69-7.77-1.53-12.05-1.23-2.37-2.54-2.93-2.45-5.3.12-2.87,2.24-6.54,4.58-7.66,1.73-.83,2.78.1,5.67,1.35Z"/>
        <path class="rb-7" d="m274.14,210.38c-1.15-2.96-1.02-5.85-.95-7.52.13-2.8.21-4.71,1.28-5.72,1.95-1.84,6,.45,8.18,3,.88,1.03,2.69,3.13,2.75,6.87.06,3.45-1.37,8.57-3.89,9.78-3.03,1.46-6.21-3.42-7.38-6.41Z"/></g>
      <g id="b5">
        <path class="rb-3" d="m245.97,182.4c12.81,0,23.19,13.46,23.19,30.06,0,16.6-10.38,30.06-23.19,30.06s-23.19-13.46-23.19-30.06c0-16.6,10.38-30.06,23.19-30.06Z"/>
        <path class="rb-11" d="m247.43,183.65c1.88,0,3.7.23,5.46.64.22.38.56.69,1.03.87,11.32,4.39,14.53,19.33,14.65,31.28-1.02,2.16-2.36,4.13-3.97,5.86-.33.08-.66.23-.96.48-6.55,5.35-17.57.86-19.63-6.91-1.15-4.34-1.39-8.74-4.81-12.07-.86-.84-1.62-2.47-2.81-2.33-9.22,1.09-9.45-2.18-10.29-4.06,3.62-8.1,11.81-13.76,21.34-13.76Z"/>
        <path class="rb-2" d="m245.97,182.4c12.81,0,23.19,13.46,23.19,30.06,0,16.6-10.38,30.06-23.19,30.06s-23.19-13.46-23.19-30.06c0-16.6,10.38-30.06,23.19-30.06Z"/>
        <path class="rb-1" d="m242.21,187.55c5.07-.29,5.08-1.43,7.39-1.14,5.49.7,8.64,7.55,8.82,7.95.46,1.03,3.04,6.83.82,9.77-2.31,3.06-9.13,2.13-12.72-1.36-2.28-2.21-2.38-4.6-5.54-6.36-1.74-.98-2.89-.91-3.69-2.27-.98-1.66-.83-4.36.41-5.68.92-.98,2.01-.76,4.51-.91Z"/>
        <path class="rb-7" d="m247.85,198.98c-2.39-1.5-3.61-3.38-4.31-4.47-1.18-1.82-1.99-3.07-1.51-4.06.87-1.82,5.52-1.7,8.62-.81,1.26.36,3.83,1.1,5.61,3.45,1.65,2.18,2.75,5.91,1.08,7.51-2.01,1.94-7.08-.11-9.49-1.62Z"/></g></g>
    <g id="r2">
      <g id="b6-2" data-name="b6">
        <path class="rb-3" d="m131.5,203.39c0,11.59-8.01,20.99-17.9,20.99s-17.9-9.4-17.9-20.99,8.01-20.99,17.9-20.99,17.9,9.4,17.9,20.99Z"/>
        <path class="rb-11" d="m128.94,192.89c-.65,1.31-.83,3.6-7.94,2.83-.92-.1-1.51,1.04-2.17,1.63-2.64,2.33-2.83,5.4-3.72,8.43-1.59,5.42-10.09,8.56-15.15,4.83-.24-.18-.49-.28-.74-.34-1.24-1.21-2.28-2.59-3.06-4.09.09-8.35,2.57-18.78,11.31-21.84.36-.13.62-.35.8-.61,1.35-.29,2.76-.45,4.21-.45,7.36,0,13.68,3.95,16.47,9.61Z"/>
        <path class="rb-2" d="m131.5,203.39c0,11.59-8.01,20.99-17.9,20.99s-17.9-9.4-17.9-20.99,8.01-20.99,17.9-20.99,17.9,9.4,17.9,20.99Z"/>
        <path class="rb-1" d="m119.98,186.63c.96.93,1.07,2.81.32,3.97-.62.95-1.5.91-2.85,1.59-2.44,1.23-2.52,2.9-4.28,4.44-2.77,2.44-8.04,3.09-9.82.95-1.71-2.05.28-6.11.63-6.82.14-.28,2.57-5.07,6.81-5.55,1.78-.2,1.78.59,5.7.79,1.93.1,2.78-.05,3.48.63Z"/>
        <path class="rb-7" d="m104.82,195.12c-1.29-1.12-.44-3.73.83-5.25,1.37-1.64,3.36-2.16,4.33-2.41,2.4-.62,5.98-.7,6.66.57.37.69-.25,1.56-1.16,2.84-.54.76-1.48,2.07-3.33,3.12-1.86,1.06-5.77,2.49-7.32,1.13Z"/></g>
      <g id="b7">
        <path class="rb-3" d="m158.88,211.18c0,13.08-9.11,23.68-20.35,23.68s-20.35-10.6-20.35-23.68,9.11-23.68,20.35-23.68,20.35,10.6,20.35,23.68Z"/>
        <path class="rb-11" d="m155.97,199.33c-.74,1.48-.94,4.06-9.03,3.2-1.04-.11-1.72,1.18-2.47,1.84-3,2.62-3.22,6.09-4.22,9.51-1.81,6.12-11.48,9.66-17.22,5.45-.27-.2-.56-.32-.85-.38-1.41-1.36-2.59-2.92-3.48-4.62.1-9.42,2.92-21.19,12.86-24.65.41-.14.71-.39.91-.69,1.54-.33,3.14-.5,4.79-.5,8.37,0,15.56,4.46,18.73,10.84Z"/>
        <path class="rb-2" d="m158.88,211.18c0,13.08-9.11,23.68-20.35,23.68s-20.35-10.6-20.35-23.68,9.11-23.68,20.35-23.68,20.35,10.6,20.35,23.68Z"/>
        <path class="rb-1" d="m145.79,192.27c1.09,1.04,1.22,3.17.36,4.48-.71,1.08-1.71,1.02-3.24,1.79-2.77,1.39-2.86,3.27-4.86,5.01-3.15,2.75-9.14,3.49-11.17,1.07-1.95-2.32.32-6.89.72-7.7.16-.32,2.93-5.72,7.74-6.27,2.02-.23,2.03.66,6.48.9,2.2.11,3.16-.05,3.96.72Z"/>
        <path class="rb-7" d="m128.55,201.85c-1.46-1.27-.5-4.21.95-5.92,1.56-1.85,3.82-2.44,4.92-2.72,2.72-.7,6.8-.79,7.57.64.42.78-.29,1.77-1.32,3.2-.62.86-1.69,2.34-3.78,3.52-2.11,1.19-6.56,2.81-8.33,1.28Z"/></g>
      <g id="b8">
        <path class="rb-3" d="m188.28,221.16c0,13.41-10.84,24.28-24.2,24.28s-24.2-10.87-24.2-24.28,10.84-24.28,24.2-24.28,24.2,10.87,24.2,24.28Z"/>
        <path class="rb-11" d="m184.83,209.01c-.88,1.52-1.12,4.16-10.74,3.28-1.24-.11-2.04,1.21-2.94,1.88-3.57,2.69-3.82,6.25-5.02,9.75-2.15,6.27-13.65,9.91-20.48,5.58-.32-.2-.66-.33-1.01-.39-1.68-1.4-3.08-2.99-4.14-4.74.12-9.65,3.48-21.72,15.29-25.27.49-.15.84-.4,1.08-.7,1.83-.34,3.73-.52,5.69-.52,9.95,0,18.5,4.57,22.27,11.12Z"/>
        <path class="rb-2" d="m188.28,221.16c0,13.41-10.84,24.28-24.2,24.28s-24.2-10.87-24.2-24.28,10.84-24.28,24.2-24.28,24.2,10.87,24.2,24.28Z"/>
        <path class="rb-1" d="m172.71,201.78c1.3,1.07,1.45,3.25.43,4.59-.84,1.1-2.03,1.05-3.86,1.84-3.3,1.43-3.41,3.35-5.78,5.14-3.75,2.82-10.87,3.57-13.28,1.1-2.32-2.38.38-7.07.86-7.89.19-.33,3.48-5.86,9.21-6.43,2.4-.24,2.41.68,7.71.92,2.62.12,3.76-.06,4.71.73Z"/>
        <path class="rb-7" d="m152.21,211.59c-1.74-1.3-.59-4.31,1.12-6.07,1.86-1.9,4.54-2.5,5.85-2.79,3.24-.72,8.09-.81,9,.66.5.8-.34,1.81-1.58,3.28-.73.88-2.01,2.4-4.5,3.61-2.51,1.22-7.8,2.88-9.9,1.31Z"/></g>
      <g id="b10">
        <path class="rb-3" d="m228.55,222.6c12.18,1.82,20.66,12.62,18.94,24.13-1.72,11.51-12.99,19.37-25.17,17.55s-20.66-12.62-18.94-24.13c1.72-11.51,12.99-19.37,25.17-17.55Z"/>
        <path class="rb-11" d="m230.99,221.53c1.66.29,3.26.73,4.77,1.31.16.31.43.6.83.8,9.6,4.98,11.01,16.57,9.96,25.47-1.11,1.45-2.49,2.71-4.08,3.75-.44.72-1.77,2.67-4.28,3.55-2.35.82-4.96.43-6.75-.67-4.98-3.07-1.42-10.36-6.08-14.4-4.11-3.57-9.67-.29-13.05-4.05-2.22-2.47-1.97-6.27-1.55-8.78,3.98-5.47,11.78-8.43,20.22-6.98Z"/>
        <path class="rb-2" d="m228.55,222.6c12.18,1.82,20.66,12.62,18.94,24.13-1.72,11.51-12.99,19.37-25.17,17.55s-20.66-12.62-18.94-24.13c1.72-11.51,12.99-19.37,25.17-17.55Z"/>
        <path class="rb-1" d="m223.56,227.66c6.04.65,6.2-.31,8.89.35,6.41,1.56,9.28,7.91,9.44,8.28.41.95,2.74,6.31-.26,8.4-3.12,2.18-11.07.18-14.89-3.4-2.42-2.27-2.24-4.3-5.76-6.35-1.94-1.13-3.3-1.28-4.09-2.57-.95-1.57-.44-3.83,1.2-4.73,1.21-.66,2.47-.29,5.46.03Z"/>
        <path class="rb-7" d="m229.12,238.17c-2.28-1.64-3.32-3.41-3.91-4.43-1-1.71-1.69-2.88-1.08-3.63,1.11-1.37,5.87-.51,8.96.74,1.25.51,3.81,1.54,5.36,3.8,1.44,2.08,2.14,5.37.24,6.43-2.29,1.28-7.26-1.26-9.56-2.91Z"/></g>
      <g id="b12">
        <path class="rb-3" d="m285.16,230.92c11.23,1.91,19.05,13.29,17.47,25.41s-11.98,20.39-23.21,18.48c-11.23-1.91-19.05-13.29-17.47-25.41s11.98-20.39,23.21-18.48Z"/>
        <path class="rb-11" d="m287.4,229.8c1.53.3,3.01.77,4.4,1.38.15.33.4.63.76.85,8.85,5.25,10.15,17.45,9.18,26.82-1.02,1.52-2.29,2.85-3.76,3.95-.41.76-1.63,2.81-3.94,3.73-2.17.86-4.58.45-6.22-.71-4.6-3.23-1.31-10.9-5.6-15.16-3.79-3.76-8.92-.31-12.03-4.26-2.05-2.6-1.82-6.6-1.43-9.24,3.67-5.76,10.87-8.88,18.65-7.35Z"/>
        <path class="rb-2" d="m285.16,230.92c11.23,1.91,19.05,13.29,17.47,25.41s-11.98,20.39-23.21,18.48c-11.23-1.91-19.05-13.29-17.47-25.41s11.98-20.39,23.21-18.48Z"/>
        <path class="rb-1" d="m280.55,236.26c5.57.68,5.72-.32,8.2.36,5.91,1.64,8.56,8.32,8.71,8.72.38,1,2.52,6.64-.24,8.84-2.87,2.29-10.21.19-13.73-3.58-2.23-2.39-2.07-4.53-5.31-6.69-1.79-1.19-3.05-1.34-3.77-2.71-.88-1.66-.4-4.03,1.11-4.98,1.11-.7,2.28-.31,5.03.03Z"/>
        <path class="rb-7" d="m285.68,247.31c-2.11-1.73-3.06-3.59-3.61-4.66-.92-1.8-1.56-3.03-1-3.82,1.02-1.44,5.42-.54,8.26.78,1.15.53,3.51,1.63,4.95,4,1.33,2.19,1.97,5.65.22,6.77-2.11,1.35-6.7-1.32-8.82-3.07Z"/></g>
      <g id="b11">
        <path class="rb-3" d="m261.03,232.85c11.23,1.85,19.05,12.84,17.47,24.55s-11.98,19.7-23.21,17.85c-11.23-1.85-19.05-12.84-17.47-24.55s11.98-19.7,23.21-17.85Z"/>
        <path class="rb-11" d="m263.28,231.77c1.53.29,3.01.74,4.4,1.33.15.32.4.61.76.82,8.85,5.07,10.15,16.86,9.18,25.91-1.02,1.47-2.29,2.76-3.76,3.82-.41.73-1.63,2.72-3.94,3.61-2.17.83-4.58.43-6.22-.69-4.6-3.12-1.31-10.53-5.6-14.65-3.79-3.64-8.92-.3-12.03-4.12-2.05-2.51-1.82-6.38-1.43-8.93,3.67-5.56,10.87-8.57,18.65-7.1Z"/>
        <path class="rb-2" d="m261.03,232.85c11.23,1.85,19.05,12.84,17.47,24.55s-11.98,19.7-23.21,17.85c-11.23-1.85-19.05-12.84-17.47-24.55s11.98-19.7,23.21-17.85Z"/>
        <path class="rb-1" d="m256.43,238.01c5.57.66,5.72-.31,8.2.35,5.91,1.59,8.56,8.04,8.71,8.42.38.96,2.52,6.41-.24,8.54-2.87,2.21-10.21.19-13.73-3.46-2.23-2.31-2.07-4.38-5.31-6.46-1.79-1.15-3.05-1.3-3.77-2.62-.88-1.6-.4-3.89,1.11-4.81,1.11-.68,2.28-.3,5.03.03Z"/>
        <path class="rb-7" d="m261.56,248.69c-2.11-1.67-3.06-3.47-3.61-4.5-.92-1.74-1.56-2.93-1-3.69,1.02-1.39,5.42-.52,8.26.75,1.15.52,3.51,1.57,4.95,3.86,1.33,2.12,1.97,5.46.22,6.54-2.11,1.3-6.7-1.28-8.82-2.96Z"/></g>
      <g id="b9">
        <path class="rb-3" d="m200.59,210.54c14.08,0,25.5,10.6,25.5,23.68s-11.42,23.68-25.5,23.68-25.5-10.6-25.5-23.68,11.42-23.68,25.5-23.68Z"/>
        <path class="rb-11" d="m202.2,211.53c2.07,0,4.07.18,6,.5.24.3.62.54,1.13.69,12.45,3.46,15.98,15.23,16.11,24.65-1.12,1.7-2.6,3.26-4.37,4.62-.36.06-.72.18-1.06.38-7.2,4.22-13.79-6.87-21.58-5.45-5,.91-10.72-3.87-14.2-9.55-1.65-2.69-5.82-4.09-5.51-5,3.98-6.38,12.98-10.84,23.47-10.84Z"/>
        <path class="rb-2" d="m200.59,210.54c14.08,0,25.5,10.6,25.5,23.68s-11.42,23.68-25.5,23.68-25.5-10.6-25.5-23.68,11.42-23.68,25.5-23.68Z"/>
        <path class="rb-1" d="m193.91,215.47c6.95-.28,6.96-1.37,10.11-1.09,7.51.67,11.83,7.25,12.08,7.63.62.98,4.16,6.56,1.12,9.38-3.16,2.94-12.5,2.04-17.42-1.31-3.12-2.12-3.26-4.41-7.58-6.11-2.39-.94-3.95-.87-5.06-2.18-1.34-1.59-1.14-4.18.56-5.45,1.25-.94,2.75-.73,6.18-.87Z"/>
        <path class="rb-7" d="m200.58,227.57c-3.59-1.67-5.41-3.77-6.47-4.98-1.77-2.03-2.98-3.42-2.26-4.53,1.31-2.03,8.28-1.9,12.94-.91,1.89.4,5.74,1.23,8.41,3.85,2.47,2.43,4.12,6.58,1.62,8.38-3.01,2.16-10.62-.13-14.23-1.81Z"/></g></g>
    <g id="r5">
      <g id="b30">
        <path class="rb-3" d="m139.63,335.6c.13-5.39,8.48-9.56,18.65-9.32s18.31,4.81,18.18,10.2-8.48,9.56-18.65,9.32-18.31-4.81-18.18-10.2Z"/>
        <path class="rb-2" d="m139.63,335.6c.13-5.39,8.48-9.56,18.65-9.32s18.31,4.81,18.18,10.2-8.48,9.56-18.65,9.32-18.31-4.81-18.18-10.2Z"/></g>
      <g id="b29">
        <path class="rb-3" d="m169.87,345.54c.12-3.52,7.92-6.25,17.42-6.1,9.5.16,17.11,3.14,16.99,6.67s-7.92,6.25-17.42,6.1c-9.5-.16-17.11-3.14-16.99-6.67Z"/>
        <path class="rb-2" d="m169.87,345.54c.12-3.52,7.92-6.25,17.42-6.1,9.5.16,17.11,3.14,16.99,6.67s-7.92,6.25-17.42,6.1c-9.5-.16-17.11-3.14-16.99-6.67Z"/></g>
      <g id="b28">
        <path class="rb-3" d="m229.38,317.59c12.17,0,22.04,6.37,22.04,14.23s-9.87,14.23-22.04,14.23-22.04-6.37-22.04-14.23,9.87-14.23,22.04-14.23Z"/>
        <path class="rb-11" d="m237.99,337.27c-1.16.08-2.29.06-3.38-.06-.14-.17-.36-.3-.65-.37-7.05-1.57-9.25-8.49-9.49-14.14.6-1.06,1.4-2.06,2.37-2.95.2-.05.4-.14.59-.27,3.97-2.82,7.86,3.56,12.21,2.4,2.79-.75,6.09,1.89,8.14,5.16.97,1.55,3.34,2.22,3.18,2.78-2.12,3.99-7.09,7.03-12.98,7.45Z"/>
        <path class="rb-2" d="m229.38,317.59c12.17,0,22.04,6.37,22.04,14.23s-9.87,14.23-22.04,14.23-22.04-6.37-22.04-14.23,9.87-14.23,22.04-14.23Z"/>
        <path class="rb-1" d="m242.57,334.58c-3.89.45-3.88,1.1-5.66,1.06-4.23-.1-6.77-3.87-6.92-4.09-.37-.57-2.45-3.77-.8-5.58,1.72-1.89,6.98-1.73,9.8.08,1.79,1.15,1.91,2.52,4.37,3.36,1.36.47,2.23.36,2.88,1.1.78.9.72,2.46-.22,3.29-.69.61-1.53.55-3.45.77Z"/>
        <path class="rb-7" d="m238.61,327.58c2.04.86,3.11,2.04,3.72,2.73,1.03,1.15,1.74,1.93,1.35,2.63-.7,1.27-4.61,1.47-7.25,1.06-1.07-.17-3.24-.5-4.79-1.97-1.43-1.36-2.43-3.78-1.06-4.96,1.65-1.42,5.96-.35,8.02.51Z"/></g>
      <g id="b27">
        <path class="rb-3" d="m204.36,314.29c12.9,0,23.35,7.52,23.35,16.79s-10.45,16.79-23.35,16.79-23.35-7.52-23.35-16.79,10.45-16.79,23.35-16.79Z"/>
        <path class="rb-11" d="m207.6,337.38c-1.86.33-3.69.53-5.47.61-.26-.17-.62-.28-1.11-.3-11.65-.41-16.3-8.06-17.59-14.61.8-1.37,1.93-2.69,3.36-3.93.32-.1.63-.24.91-.44,5.97-4.1,13.28,2.57,20.13.33,4.39-1.44,10.14.98,13.99,4.38,1.82,1.61,5.76,1.92,5.59,2.6-2.79,5.1-10.35,9.66-19.8,11.35Z"/>
        <path class="rb-2" d="m204.36,314.29c12.9,0,23.35,7.52,23.35,16.79s-10.45,16.79-23.35,16.79-23.35-7.52-23.35-16.79,10.45-16.79,23.35-16.79Z"/>
        <path class="rb-1" d="m217.36,329.18c-4.29,2.49-4.09,3.21-6.12,4.07-4.82,2.05-8.76-.87-8.99-1.04-.58-.44-3.83-2.95-2.46-5.83,1.42-2.99,7.43-5.49,11.13-4.91,2.35.37,2.87,1.83,5.89,1.52,1.67-.17,2.63-.73,3.57-.23,1.14.61,1.5,2.39.67,3.79-.61,1.04-1.58,1.4-3.7,2.62Z"/>
        <path class="rb-7" d="m211.26,323.38c2.43-.08,3.9.7,4.74,1.15,1.42.76,2.39,1.27,2.16,2.24-.42,1.77-4.59,4-7.54,4.89-1.19.36-3.64,1.09-5.7.24-1.91-.79-3.63-2.99-2.46-5,1.41-2.42,6.35-3.44,8.8-3.52Z"/></g>
      <g id="b26">
        <path class="rb-3" d="m169.44,302.28c13.8,0,24.98,8.99,24.98,20.08s-11.18,20.08-24.98,20.08-24.98-8.99-24.98-20.08,11.18-20.08,24.98-20.08Z"/>
        <path class="rb-11" d="m175.87,333.49c-1.89.35-3.75.47-5.55.41-.25-.31-.62-.54-1.11-.63-11.74-2.04-16.12-15.51-17.15-26.75.86-2.22,2.06-4.33,3.55-6.26.33-.13.64-.34.93-.63,6.19-6.26,13.3,5.88,20.31,2.87,4.49-1.93,10.2,2.82,13.94,9.02,1.77,2.93,5.73,3.9,5.53,5.04-3.02,8.3-10.85,15.16-20.46,16.92Z"/>
        <path class="rb-2" d="m169.44,302.28c13.8,0,24.98,8.99,24.98,20.08s-11.18,20.08-24.98,20.08-24.98-8.99-24.98-20.08,11.18-20.08,24.98-20.08Z"/>
        <path class="rb-1" d="m184.98,323.26c-5.03,2.95-4.74,3.8-7.14,4.82-5.72,2.43-10.73-.98-11.02-1.19-.73-.52-4.89-3.46-3.44-6.84,1.51-3.52,8.63-6.49,13.18-5.82,2.88.42,3.63,2.15,7.28,1.76,2.02-.21,3.15-.88,4.33-.29,1.43.71,2,2.8,1.11,4.46-.66,1.22-1.82,1.65-4.3,3.11Z"/>
        <path class="rb-7" d="m177.15,315.76c2.52-.32,4.12.46,5.04.91,1.55.75,2.61,1.27,2.48,2.43-.25,2.11-4.34,5.1-7.31,6.41-1.2.53-3.66,1.61-5.89.81-2.06-.74-4.08-3.16-3.08-5.62,1.21-2.96,6.22-4.6,8.76-4.92Z"/></g></g>
    <g id="r4">
      <g id="b24">
        <path class="rb-3" d="m111.68,284.24c5.15-1.61,11.78,4.96,14.81,14.67s1.32,18.89-3.83,20.49-11.78-4.96-14.81-14.67-1.32-18.89,3.83-20.49Z"/>
        <path class="rb-2" d="m111.68,284.24c5.15-1.61,11.78,4.96,14.81,14.67s1.32,18.89-3.83,20.49-11.78-4.96-14.81-14.67-1.32-18.89,3.83-20.49Z"/></g>
      <g id="b19">
        <path class="rb-3" d="m127.6,252.86c14.45,0,26.17,11.06,26.17,24.71s-11.72,24.71-26.17,24.71-26.17-11.06-26.17-24.71,11.72-24.71,26.17-24.71Z"/>
        <path class="rb-11" d="m102.47,281.58c-.53-2.05-.87-4.09-1.04-6.09.24-.32.39-.75.4-1.31.28-13.27,11.26-19.87,20.73-22.46,2,.67,3.96,1.73,5.79,3.13.15.34.37.67.66.95,6.11,6.05-3.38,15.49.06,22.86,2.21,4.73-1.14,11.66-5.98,16.6-2.29,2.34-2.63,6.86-3.63,6.78-7.47-2.28-14.3-10.06-17-20.47Z"/>
        <path class="rb-2" d="m127.6,252.86c14.45,0,26.17,11.06,26.17,24.71s-11.72,24.71-26.17,24.71-26.17-11.06-26.17-24.71,11.72-24.71,26.17-24.71Z"/>
        <path class="rb-1" d="m109.99,285.77c-1.36-7-2.49-6.85-2.68-10.09-.47-7.73,5.65-13.14,6.01-13.45.92-.79,6.12-5.25,9.5-2.61,3.52,2.74,4.03,12.36,1.34,17.88-1.71,3.49-4.05,4-5.13,8.65-.6,2.57-.29,4.14-1.47,5.47-1.44,1.61-4.14,1.81-5.71.28-1.16-1.13-1.18-2.68-1.85-6.13Z"/>
        <path class="rb-7" d="m121.68,274.85c-.89,3.19-2.61,5.04-3.6,6.11-1.67,1.8-2.81,3.02-4.1,2.65-2.36-.68-3.81-6.3-3.85-10.22-.02-1.59-.05-4.83,2.01-7.46,1.91-2.43,5.77-4.52,8.16-2.84,2.88,2.02,2.27,8.55,1.38,11.76Z"/></g>
      <g id="b25">
        <path class="rb-3" d="m140.76,291.97c10.87,0,19.68,9.61,19.68,21.47s-8.81,21.47-19.68,21.47-19.68-9.61-19.68-21.47,8.81-21.47,19.68-21.47Z"/>
        <path class="rb-11" d="m146,324.71c-1.56.35-3.11.51-4.63.52-.25-.25-.58-.42-1-.48-10.13-1.27-15.34-12.1-17.47-21.21.48-1.84,1.25-3.6,2.29-5.22.26-.12.5-.3.72-.55,4.51-5.3,11.87,4.35,17.44,1.66,3.57-1.72,8.91,1.96,12.76,6.88,1.82,2.33,5.27,2.99,5.23,3.93-1.61,6.86-7.44,12.7-15.34,14.46Z"/>
        <path class="rb-2" d="m140.76,291.97c10.87,0,19.68,9.61,19.68,21.47s-8.81,21.47-19.68,21.47-19.68-9.61-19.68-21.47,8.81-21.47,19.68-21.47Z"/>
        <path class="rb-1" d="m145.74,321.1c-5.85-.71-6.03.41-8.62-.33-6.17-1.77-8.72-9.18-8.86-9.61-.36-1.1-2.42-7.36.57-9.83,3.11-2.57,10.77-.31,14.34,3.86,2.26,2.64,2.02,5.02,5.35,7.39,1.84,1.31,3.16,1.46,3.87,2.98.87,1.83.28,4.47-1.35,5.54-1.2.79-2.42.36-5.3.01Z"/>
        <path class="rb-7" d="m141.78,310.05c2.27,1.88,3.2,3.78,3.74,4.87.9,1.84,1.52,3.09.8,3.81-1.31,1.31-6.28,0-9.44-1.54-1.28-.63-3.89-1.91-5.33-4.35-1.33-2.26-1.76-5.68.36-6.6,2.55-1.11,7.59,1.92,9.88,3.82Z"/></g>
      <g id="b21">
        <path class="rb-3" d="m177.74,271.02c12.02,0,21.76,10.1,21.76,22.55s-9.74,22.55-21.76,22.55-21.76-10.1-21.76-22.55,9.74-22.55,21.76-22.55Z"/>
        <path class="rb-11" d="m179.11,271.96c1.76,0,3.48.22,5.12.61.21.36.53.66.97.84,10.62,4.21,13.64,18.52,13.75,29.98-.96,2.07-2.22,3.96-3.73,5.62-.31.07-.62.22-.9.46-1.14.95-2.33,1.12-2.35,1.13-1.07.48-6.87-.38-14.3-9.52-6.09-7.49-6.29-11.93-11.7-14.51-2.65-1.26-5.21-1.44-6.88-1.41,3.39-7.77,11.08-13.19,20.03-13.19Z"/>
        <path class="rb-2" d="m177.74,271.02c12.02,0,21.76,10.1,21.76,22.55s-9.74,22.55-21.76,22.55-21.76-10.1-21.76-22.55,9.74-22.55,21.76-22.55Z"/>
        <path class="rb-1" d="m178.31,279.29c5.41,2.43,5.89,1.51,8.17,2.96,5.44,3.46,5.9,10.71,5.93,11.14.05,1.08.36,7.17-3.17,8.41-3.67,1.28-10.4-3.07-12.71-7.81-1.46-3-.59-5-3.16-8.11-1.42-1.72-2.64-2.26-2.92-3.8-.34-1.87.93-3.99,2.77-4.42,1.36-.32,2.41.43,5.08,1.64Z"/>
        <path class="rb-7" d="m178.74,290.6c-1.58-3.07-1.7-5.6-1.77-7.06-.12-2.45-.2-4.13.91-4.64,2.03-.93,6.82,2.6,9.52,5.67,1.09,1.24,3.33,3.78,3.75,7.14.39,3.1-.75,7.15-3.48,7.31-3.29.19-7.33-5.33-8.93-8.42Z"/></g>
      <g id="b20">
        <path class="rb-3" d="m149.9,264.31c11.48,0,20.79,10.1,20.79,22.55s-9.31,22.55-20.79,22.55-20.79-10.1-20.79-22.55,9.31-22.55,20.79-22.55Z"/>
        <path class="rb-11" d="m130.74,279.28c-.07-1.14.05-2.26.35-3.33.32-.14.58-.36.72-.65,3.38-6.99,16.24-9.32,26.62-9.7,1.91.56,3.68,1.33,5.25,2.26.08.2.22.39.46.57,0,0,.62.81,1.17,1.72,9.3,15.42,5.4,22.03,5.4,22.03-3.32,5.63-12.18,5.63-13.28,5.62-7.74,0-12.81-4.83-13.9-5.92-7.18-1.99-12.41-6.82-12.77-12.61Z"/>
        <path class="rb-2" d="m149.9,264.31c11.48,0,20.79,10.1,20.79,22.55s-9.31,22.55-20.79,22.55-20.79-10.1-20.79-22.55,9.31-22.55,20.79-22.55Z"/>
        <path class="rb-1" d="m162.81,291.4c-2.18,1.6-3.29,2.4-4.5,2.59-.94.14-1.99-.09-4.05-.56-1.01-.23-2.65-.61-4.39-1.24-2.19-.79-6.38-2.31-9.81-5.83-1.41-1.44-5.92-6.08-4.63-9.23,1.46-3.56,9.99-4.38,15.91-2.15,3.57,1.34,3.83,2.9,9.16,4.84,1.6.58,3.16,1.02,4.51,2.54.18.21,2.52,2.92,1.65,5.54-.3.89-1.48,1.78-3.84,3.51Z"/>
        <path class="rb-7" d="m146.89,287.7c-3.32-1.81-5.02-4.08-6-5.39-1.64-2.2-2.76-3.7-2.1-4.9,1.21-2.19,7.68-2.06,12-.98,1.75.44,5.32,1.33,7.8,4.17,2.29,2.63,3.82,7.13,1.5,9.07-2.79,2.33-9.85-.14-13.19-1.96Z"/></g>
      <g id="b22">
        <path class="rb-3" d="m218.76,320.75c-12.5,3.38-24.99-2.62-27.9-13.4-2.91-10.78,4.86-22.25,17.36-25.62,12.5-3.38,24.99,2.62,27.9,13.4,2.91,10.78-4.86,22.25-17.36,25.62Z"/>
        <path class="rb-11" d="m217.11,320.2c-1.83.55-3.65.93-5.44,1.14-.28-.21-.67-.33-1.16-.33-11.81.15-17.57-9.73-19.78-18.35.62-1.86,1.58-3.69,2.85-5.42.31-.15.6-.36.86-.63,5.45-5.8,13.76,2.63,20.36-.77,4.23-2.17,10.37.69,14.72,4.98,2.06,2.03,6.08,2.2,6,3.12-2.11,6.94-9.11,13.45-18.41,16.25Z"/>
        <path class="rb-2" d="m218.76,320.75c-12.5,3.38-24.99-2.62-27.9-13.4-2.91-10.78,4.86-22.25,17.36-25.62,12.5-3.38,24.99,2.62,27.9,13.4,2.91,10.78-4.86,22.25-17.36,25.62Z"/>
        <path class="rb-1" d="m226.2,309.08c-6.1,1.9-5.87,2.8-8.73,3.32-6.82,1.25-12.11-3.13-12.42-3.39-.77-.66-5.15-4.4-3.08-7.46,2.15-3.18,10.63-4.68,15.75-3.1,3.24,1,3.88,2.85,8.09,3.21,2.33.2,3.7-.23,4.97.58,1.55.99,1.94,3.17.71,4.63-.9,1.07-2.28,1.26-5.29,2.2Z"/>
        <path class="rb-7" d="m218.69,300.53c3.55.52,5.64,1.81,6.85,2.55,2.02,1.25,3.41,2.1,3.02,3.19-.71,1.98-6.93,3.55-11.28,3.85-1.76.12-5.37.37-8.32-1.15-2.73-1.41-5.12-4.44-3.3-6.51,2.19-2.5,9.45-2.44,13.03-1.92Z"/></g>
      <g id="b23">
        <path class="rb-3" d="m246.15,285.97c10.93,0,19.79,9.62,19.79,21.49s-8.86,21.49-19.79,21.49-19.79-9.62-19.79-21.49,8.86-21.49,19.79-21.49Z"/>
        <path class="rb-11" d="m259.36,317.06c-1.19,1.07-2.46,1.99-3.77,2.77-.11,0-.29-.02-.51-.03-9.49-.53-12.65-.12-17.46-.62-1.95-.2-4.8-.62-8.25-1.6-.5-.52-3.41-3.6-2.88-7.69.16-1.23.59-2.23,1-2.97-.31-.74-.92-2.51-.11-3.94.62-1.1,1.81-1.51,2.36-1.69,7.58-2.48,16.37-3.31,16.37-3.31,8.34-.79,10.32-2.29,13.98-.93,2.58.96,5.84-.27,6.21.51,1.58,6.37-.91,14.05-6.95,19.49Z"/>
        <path class="rb-2" d="m246.15,285.97c10.93,0,19.79,9.62,19.79,21.49s-8.86,21.49-19.79,21.49-19.79-9.62-19.79-21.49,8.86-21.49,19.79-21.49Z"/>
        <path class="rb-1" d="m261.75,310.11c-3.84,3.8-3.18,4.54-5.17,5.98-4.74,3.45-11.22,1.25-11.6,1.12-.96-.34-6.38-2.26-6.34-5.74.04-3.62,5.97-7.86,10.84-8.16,3.08-.19,4.56,1.28,8.08.18,1.95-.61,2.81-1.46,4.24-1.15,1.74.38,3.19,2.23,2.99,3.97-.15,1.28-1.14,1.92-3.03,3.8Z"/>
        <path class="rb-7" d="m250.55,305.4c3.08-.73,5.41-.27,6.75,0,2.25.45,3.79.76,4.05,1.88.48,2.05-3.62,5.58-6.91,7.33-1.33.71-4.05,2.15-7.19,1.77-2.9-.35-6.37-2.3-6.02-4.81.43-3.02,6.2-5.43,9.31-6.17Z"/></g></g>
    <g id="r3">
      <g id="b13">
        <path class="rb-3" d="m119.08,217.38c11.48,0,20.79,10.1,20.79,22.55s-9.31,22.55-20.79,22.55-20.79-10.1-20.79-22.55,9.31-22.55,20.79-22.55Z"/>
        <path class="rb-11" d="m98.42,239.09c-.15-1.68-.13-3.32.04-4.91.26-.22.47-.55.57-.98,2.36-10.4,13.26-14.29,22.18-15.21,1.69.76,3.28,1.83,4.7,3.15.08.29.23.57.44.83,4.53,5.48-5.49,11.79-3.57,17.99,1.23,3.98-2.88,9.03-8.01,12.35-2.43,1.57-3.45,5.08-4.33,4.9-6.35-2.68-11.24-9.61-12.02-18.12Z"/>
        <path class="rb-2" d="m119.08,217.38c11.48,0,20.79,10.1,20.79,22.55s-9.31,22.55-20.79,22.55-20.79-10.1-20.79-22.55,9.31-22.55,20.79-22.55Z"/>
        <path class="rb-1" d="m106.24,245.07c-2.14-4.4-3.04-4.09-3.68-6.21-1.52-5.05,2.68-9.77,2.93-10.04.63-.69,4.22-4.61,7.37-3.48,3.28,1.18,5.11,7.47,3.73,11.63-.88,2.63-2.71,3.4-2.91,6.69-.11,1.82.38,2.81-.39,3.9-.93,1.33-3.11,1.96-4.62,1.24-1.11-.53-1.36-1.56-2.42-3.73Z"/>
        <path class="rb-7" d="m111.93,236.13c.2,2.2-.49,3.86-.88,4.81-.66,1.6-1.11,2.69-2.06,2.87-1.73.32-4.08-2.64-5.07-5-.4-.96-1.23-2.91-.51-5.14.67-2.06,2.71-4.51,4.71-4.23,2.41.34,3.62,4.48,3.81,6.7Z"/></g>
      <g id="b15">
        <path class="rb-3" d="m170.69,237.6c11.48,0,20.79,10.1,20.79,22.55s-9.31,22.55-20.79,22.55-20.79-10.1-20.79-22.55,9.31-22.55,20.79-22.55Z"/>
        <path class="rb-11" d="m172.01,238.54c1.68,0,3.32.17,4.89.48.1.14.23.27.38.38.27.2.52.26.55.27.35.11,3.97,3.42,13.11,12.16-1.03,1.95-8.25,15.14-19.73,15.53-1.27.04-2.71-.07-4.27-.45.28-1.01.51-2.34-.08-2.77-.69-.51-1.79.76-3.38.75-2.25-.02-2.76-2.58-5.41-4.29-3.71-2.41-7.1-.23-8.47-2.01-.81-1.05-.9-3.45,3.26-9.72,3.24-6.08,10.59-10.33,19.13-10.33Z"/>
        <path class="rb-2" d="m170.69,237.6c11.48,0,20.79,10.1,20.79,22.55s-9.31,22.55-20.79,22.55-20.79-10.1-20.79-22.55,9.31-22.55,20.79-22.55Z"/>
        <path class="rb-1" d="m161.43,247.26c5.66-.27,5.67-1.31,8.24-1.04,6.13.64,9.65,6.9,9.85,7.27.51.94,3.39,6.24.92,8.93-2.57,2.8-10.19,1.94-14.2-1.25-2.54-2.02-2.66-4.2-6.18-5.82-1.95-.89-3.22-.83-4.12-2.08-1.09-1.52-.93-3.98.46-5.19,1.02-.89,2.24-.7,5.04-.83Z"/>
        <path class="rb-7" d="m165.97,257.85c-2.42-1.43-3.65-3.23-4.36-4.27-1.19-1.74-2.01-2.93-1.53-3.88.88-1.74,5.58-1.63,8.72-.78,1.27.34,3.87,1.05,5.67,3.3,1.67,2.08,2.78,5.64,1.09,7.18-2.03,1.85-7.16-.11-9.59-1.55Z"/></g>
      <g id="b14">
        <path class="rb-3" d="m145.44,226.04c11.48,0,20.79,10.1,20.79,22.55s-9.31,22.55-20.79,22.55-20.79-10.1-20.79-22.55,9.31-22.55,20.79-22.55Z"/>
        <path class="rb-11" d="m147.01,226.98c1.71,0,3.37.17,4.96.47.2.28.51.51.94.64,10.29,3.25,13.21,14.29,13.32,23.12-.93,1.59-2.15,3.05-3.61,4.33-.29-.12-.79-.29-1.4-.27-2.76.09-3.72,3.83-5.61,3.82-1.77-.01-1.81-3.31-4.28-4.72-3.02-1.73-5.95,1.48-11.22,2.08-5.47.61-13.31-1.62-15.45-7.13-2.12-5.45,2.38-11.43,2.95-12.18,3.29-5.99,10.73-10.17,19.4-10.17Z"/>
        <path class="rb-2" d="m145.44,226.04c11.48,0,20.79,10.1,20.79,22.55s-9.31,22.55-20.79,22.55-20.79-10.1-20.79-22.55,9.31-22.55,20.79-22.55Z"/>
        <path class="rb-1" d="m137.8,235.16c5.68-.25,6.79-1.08,8.68-1.23.77-.06,1.4,0,1.58.03,2.58.3,7.54,6.95,5.02,12.82-2.15,5.02-8.96,7.53-14.28,5.85-5.82-1.84-7.23-7.87-7.84-10.5-.38-1.62-1.12-4.63.57-6,1.27-1.03,2.79-.81,6.27-.96Z"/>
        <path class="rb-7" d="m140.96,249.31c-.38-.1-1.07-.33-3.31-2.32-2.26-2.01-3.4-3.01-3.55-4.01-.29-1.87,1.19-3.7,2.39-4.59,3.38-2.5,7.94-.03,8.27.15,1.06.59,3.4,1.91,3.73,4.42.34,2.57-1.6,4.88-3.51,5.85-.45.23-2.1,1-4.02.49Z"/></g>
      <g id="b15-2" data-name="b15">
        <path class="rb-3" d="m203.69,249.4c11.48,0,20.79,10.1,20.79,22.55s-9.31,22.55-20.79,22.55-20.79-10.1-20.79-22.55,9.31-22.55,20.79-22.55Z"/>
        <path class="rb-11" d="m205,250.34c1.68,0,3.32.17,4.89.48.1.14.23.27.38.38.27.2.52.26.55.27.35.11,3.97,3.42,13.11,12.16-1.03,1.95-8.25,15.14-19.73,15.53-1.27.04-2.71-.07-4.27-.45.28-1.01.51-2.34-.08-2.77-.69-.51-1.79.76-3.38.75-2.25-.02-2.76-2.58-5.41-4.29-3.71-2.41-7.1-.23-8.47-2.01-.81-1.05-.9-3.45,3.26-9.72,3.24-6.08,10.59-10.33,19.13-10.33Z"/>
        <path class="rb-2" d="m203.69,249.4c11.48,0,20.79,10.1,20.79,22.55s-9.31,22.55-20.79,22.55-20.79-10.1-20.79-22.55,9.31-22.55,20.79-22.55Z"/>
        <path class="rb-1" d="m194.42,259.06c5.66-.27,5.67-1.31,8.24-1.04,6.13.64,9.65,6.9,9.85,7.27.51.94,3.39,6.24.92,8.93-2.57,2.8-10.19,1.94-14.2-1.25-2.54-2.02-2.66-4.2-6.18-5.82-1.95-.89-3.22-.83-4.12-2.08-1.09-1.52-.93-3.98.46-5.19,1.02-.89,2.24-.7,5.04-.83Z"/>
        <path class="rb-7" d="m198.96,269.65c-2.42-1.43-3.65-3.23-4.36-4.27-1.19-1.74-2.01-2.93-1.53-3.88.88-1.74,5.58-1.63,8.72-.78,1.27.34,3.87,1.05,5.67,3.3,1.67,2.08,2.78,5.64,1.09,7.18-2.03,1.85-7.16-.11-9.59-1.55Z"/></g>
      <g id="b16">
        <path class="rb-3" d="m234.15,257.27c10.93,0,19.79,9.62,19.79,21.49s-8.86,21.49-19.79,21.49-19.79-9.62-19.79-21.49,8.86-21.49,19.79-21.49Z"/>
        <path class="rb-11" d="m229.52,258.49c3.11-.61,7.22-.3,7.4-.28,1.29.1,2.36.27,3.13.41.09.13.21.26.36.36.25.18.49.25.52.26.31.1,2.4,1.66,8.29,6.38.53.84,7.18,11.6,2.7,18.19-.46.67-1.06,1.35-1.88,1.98-.16.03-.32.08-.48.15-.2.09-.33.19-.34.19-.26.18-9.18,3.31-18.07-2.17-5.67-3.49-8.24-8.58-9.69-11.44-1.45-2.86-2.23-5.45-2.67-7.33,1.37-1.54,5.35-5.66,10.73-6.72Z"/>
        <path class="rb-2" d="m234.15,257.27c10.93,0,19.79,9.62,19.79,21.49s-8.86,21.49-19.79,21.49-19.79-9.62-19.79-21.49,8.86-21.49,19.79-21.49Z"/>
        <path class="rb-1" d="m237.79,265.81c3.41,1.76,5.11,2.64,6.69,4.31.71.75,4.9,5.15,3.99,8.22-1.03,3.48-8.72,5.5-13.28,2.05-3.87-2.93-3.01-7.93-8.55-12.52-1.58-1.31-3.05-2.06-2.92-3,.2-1.42,3.91-2.15,6.91-1.83,2.17.23,3.86,1.08,7.14,2.78Z"/>
        <path class="rb-7" d="m235.22,275.47c-1.88-1.28-2.84-2.89-3.4-3.82-.93-1.56-1.56-2.62-1.19-3.47.69-1.56,4.35-1.46,6.79-.69.99.31,3.01.94,4.41,2.95,1.3,1.86,2.16,5.05.85,6.43-1.58,1.66-5.57-.1-7.47-1.39Z"/></g>
      <g id="b18">
        <path class="rb-3" d="m263.57,262.95c11.97,0,21.68,9.72,21.68,21.7,0,11.99-9.71,21.7-21.68,21.7s-21.68-9.72-21.68-21.7,9.71-21.7,21.68-21.7Z"/>
        <path class="rb-11" d="m276.89,268.8c1.41,1.04,2.69,2.19,3.83,3.4,0,.34.13.71.4,1.08,6.62,8.84,2.62,19.3-2.42,26.3-1.69.69-3.55,1.09-5.5,1.2-.28-.14-.59-.23-.93-.26-7.22-.53-5.68-12.03-11.78-14.92-3.91-1.86-5.22-8.27-4.5-14.21.34-2.81-1.75-5.96-1.04-6.47,6.2-2.69,14.78-1.43,21.95,3.87Z"/>
        <path class="rb-2" d="m263.57,262.95c11.97,0,21.68,9.72,21.68,21.7,0,11.99-9.71,21.7-21.68,21.7s-21.68-9.72-21.68-21.7,9.71-21.7,21.68-21.7Z"/>
        <path class="rb-1" d="m267.08,268.37c5.2,2.8,5.72,1.95,7.9,3.54,5.17,3.8,5.24,10.86,5.24,11.27,0,1.05-.04,6.97-3.58,7.87-3.68.94-10.08-3.83-12.1-8.61-1.28-3.03-.31-4.89-2.67-8.11-1.3-1.78-2.48-2.4-2.67-3.92-.23-1.84,1.13-3.79,2.97-4.05,1.36-.19,2.35.62,4.92,2Z"/>
        <path class="rb-7" d="m267.79,280.15c-1.26-2.57-1.32-4.64-1.35-5.84-.05-2-.09-3.38.84-3.74,1.71-.67,5.63,2.43,7.82,5.05.89,1.06,2.7,3.23,2.99,5.99.27,2.55-.75,5.8-3.03,5.81-2.74.01-6.01-4.68-7.28-7.27Z"/></g></g></g></svg>