<?xml version="1.0" encoding="UTF-8"?>
<svg id="Layer_2" data-name="Layer 2" xmlns="http://www.w3.org/2000/svg" viewBox="0 0 378.26 240.37">
  <defs>
    <style>
      .cls-1 {
        fill: #d91d42;
      }

      .cls-2 {
        fill: #adc671;
      }

      .cls-3 {
        fill: #aec572;
      }

      .cls-4 {
        fill: #f21925;
      }

      .cls-5 {
        fill: #618137;
      }

      .cls-6 {
        fill: #5f8139;
      }

      .cls-7 {
        fill: #f0987d;
      }

      .cls-8 {
        fill: #6e973b;
      }

      .cls-9 {
        fill: #e58f5e;
      }
    </style>
  </defs>
  <g id="leaf">
    <path class="cls-8" d="m32.95,129.58c-2.07,1.09-5.07,2.23-8.37,1.63-3.68-.67-4.18-2.85-8.37-3.95-4.74-1.25-6.13,1.01-9.76-.46-4.51-1.83-7.22-7.28-6.27-8.37.57-.66,2.34.47,5.11,1.39,11.49,3.82,22.58-1.85,24.86-3.02.47-.24,6.52-3.37,6.04-4.88-.38-1.22-4.64-.19-11.15-.7-4.9-.38-10.81-.84-15.8-4.42-6.63-4.75-9-13.12-8.13-13.71.53-.37,1.93,2.49,5.34,3.72,4.16,1.49,7.17-.94,13.25-2.79,10.66-3.25,17.98-.84,18.59-3.25.34-1.35-1.92-2.21-4.18-4.88-7.33-8.66-3.19-22.85-2.79-24.17,2.57-8.39,8.49-14.49,9.53-13.94.74.39-1.65,3.8-.93,8.6.55,3.66,2.51,5.45,7.67,11.39,8.33,9.59,10.15,12.91,11.62,12.32,1.54-.63.57-4.76.7-9.06.52-17.94,19.9-32.85,22.08-31.37.74.5-.9,2.61-.7,7.44.18,4.31,1.67,6.63,2.56,9.3,3.27,9.78-2.97,19.54-1.86,19.98.83.33,2.6-5.78,8.13-11.62,6-6.34,12.93-8.65,18.36-10.46,2.68-.89,10.74-3.58,12.08-1.39.72,1.18-1.03,2.88-3.25,8.13-1.71,4.05-2.38,7.07-2.56,7.67-1.4,4.6-21.6,20.84-81.8,60.88Z"/>
    <path class="cls-5" d="m59.8,79.47c-.74-6.65.82-15.16,3.67-21.21,3.03-6.46,8.39-11.47,13.63-16.31,1.47-1.36,3.63-2.81,5.3-1.69-3.02,4.19-6.04,8.38-9.06,12.58-2.55,3.54-5.12,7.11-6.79,11.14-1.66,4.01-2.61,13.41-6.74,15.5Z"/>
    <path class="cls-2" d="m42.07,63.21c.27.99.27,2.04.47,3.05.69,3.47,3.61,6.04,6.61,7.91,2.09,1.3,4.37,2.46,5.91,4.39s2.08,4.95.44,6.79c-.31.35-.8.65-1.22.45-.3-.14-.43-.48-.57-.78-1.56-3.53-5.68-5.09-8.3-7.93-.77-.83-1.4-1.77-2.13-2.64-.9-1.07-1.93-2.02-2.78-3.12-1.59-2.05-3.17-5.53-2.67-8.21s3.44-2.77,4.23.1Z"/>
    <path class="cls-3" d="m78.78,62.83c0-.76,0-1.53-.19-2.27-.16-.59-.43-1.14-.67-1.7-1.13-2.73-1.21-5.87-.23-8.65.2-.58.52-1.2,1.11-1.36.82-.22,1.55.6,1.87,1.38.48,1.16.6,2.43.71,3.68.43,4.88.81,9.77,1.13,14.67.12,1.82-1.97,3.59-3.6,2.05-1.33-1.25-.15-6.08-.13-7.8Z"/>
    <path class="cls-5" d="m48.51,94.26c-.16,3.46-.25,7.13-.62,10.54-.94,8.64-6.39,16.72-10.9,23.87-.78,1.24-1.62,2.53-2.94,3.18-1.44.71-3.15.49-4.74.26-2.48-.36-4.98-.73-7.35-1.57-2.05-.72-3.98-1.79-6.05-2.45-2.89-.93-6-1.07-8.88-2.02-2.89-.95-5.73-3.04-6.2-6.04,10.25-.11,20.42-1.65,30.55-3.18,1.27-.19,2.58-.4,3.66-1.11s1.83-2.06,1.44-3.28c-.07-.21-.17-.42-.34-.57-.32-.28-.79-.27-1.21-.25-8.05.32-16.16-1.22-23.53-4.47-2.96-1.31-5.89-2.95-7.92-5.47-2.03-2.52-3.02-6.09-1.78-9.09,2.02,3.88,7.32,4.84,11.57,3.75,4.24-1.08,7.94-3.66,12.04-5.19,4.1-1.54,9.22-1.81,12.38,1.23-9.09-10.76-10.34-24.4-4.14-36.35.51-.98,1.39-2.33,2.28-1.67-.64,6.2-1.17,12.89,2.03,18.24,2.13,3.55,5.68,6.05,7.91,9.54,2.3,3.59,2.96,7.91,2.76,12.1Z"/>
    <path class="cls-6" d="m108.33,60.73c.32-.78.64-1.57,1.17-2.23.82-1.02,2.06-1.61,3.24-2.17,2.07-.97,4.22-1.96,6.5-2.06-.17,4.12-1.49,8.18-3.77,11.61-.11.17-.23.34-.41.45-.27.16-.6.13-.91.09-1.38-.17-5.8.02-6.75-1-1.11-1.19.42-3.46.93-4.7Z"/>
  </g>
  <g id="strawberry">
    <path id="strawberrybase" class="cls-4" d="m29,158c-5.07-15.72,3.53-38.25,10.69-39.51,1.11-.19,3.53-.11,5.11-1.86,2.2-2.42,1.16-6.56.93-7.9-1.6-9.41,13.09-21.09,18.13-25.1,7.11-5.66,31.2-24.62,56.24-15.8,13.55,4.77,21.07,15.46,25.56,21.84,6.68,9.5,8.49,17.08,13.94,39.51,11.67,48.01,12.52,51.01,9.76,55.31-9.15,14.26-37.39,10.67-62.74,7.44-27.43-3.49-69.53-8.86-77.62-33.93Z"/>
    <path id="shine" class="cls-7" d="m96.63,70.79c9.01-6.32,24.05,2.7,25.33,3.49,6.65,4.1,13.1,10.95,11.85,13.01-1.11,1.85-8.66.36-14.18-3.49-4.29-2.99-3.61-4.79-6.97-6.74-8-4.63-18.46,1.78-19.75-.7-.65-1.25,1.43-3.97,3.72-5.58Zm-56,96.67c7.51,6.7,16.7,9.83,20.91,11.15,1.2.38,2.66.8,5.58,1.63,6.57,1.87,14.54,4.15,21.61,5.81,8.07,1.9,23.88,5.61,24.86,3.02.54-1.41-3.49-4.11-3.95-4.42-7.06-4.68-12.85-1.99-22.08-3.02-2.14-.24-19.11-2.36-28.12-14.18-3.46-4.54-3.99-8.21-7.9-9.3-5.37-1.5-12.91,3.05-12.78,6.51.04,1.06.79,1.84,1.86,2.79Zm36.25-34.63c-.18,2.52-1.81,3.11-3.02,5.81-2.34,5.21.33,10.66.46,10.92,1.7,3.34,5.11,6.06,6.51,5.34,1.28-.66.03-3.81,1.63-4.88,1.12-.75,5.33-1.92,6.04,1.63,2.89,14.48,6.27,13.99,10.22,3.49,1.14-3.02,4.61-5.78,4.88-8.83.37-4.27-1.68-5.81-.46-9.06.71-1.9,2.53-4.39,4.88-4.65,4.01-.43,7.13,5.91,8.6,5.11.84-.45-.25-2.46.23-5.81.66-4.58,1.08-5.94,3.02-7.9,6.18-6.25,6.24-7.71-7.67-8.13-4.77-.15-2.9-5.61-4.88-6.04-2.98-.64-5.19,3.16-7.9,2.09-1.82-.71-2.36-3.03-3.25-2.79-.91.25-.53,2.75-1.39,3.02-1.04.33-2.26-3.12-5.11-5.58-3.92-3.38-9.42-3.59-9.76-2.79-.43,1.03,7.66,3.65,7.44,7.44-.12,2.05-2.66,4.18-4.88,4.18-1.93,0-2.4-1.6-3.72-1.39-2.69.41-5.51,7.85-3.49,13.71.74,2.15,1.77,3.03,1.63,5.11Zm40.2,39.04c-.12,3.88,10.15,1.92,10.92,6.27,1.49,8.44,3.08,12.09,6.27-1.86,1.2-5.27,5.41-2.74,7.2-2.56,3.14.33,5.82,3.43,6.97,6.04,1.3,2.94.36,4.56,1.86,5.81,1.76,1.47,5.38,1.17,6.74-.7,1.14-1.57-.51-3.46-1.16-7.2-1.3-7.46-2.8-9.98-5.81-7.9-2.36,1.63-4.42,2.15-6.51,1.16-1.98-.94-2.41-4.31-2.32-6.27.2-4.41,3.31-7.47,2.79-7.9-.51-.43-2.83,3.12-5.34,2.79-3.56-.46-5.31-8.36-6.04-8.13-.58.18,1.37,4.77-.7,7.44-1.18,1.52-3.9,4.16-5.11,2.09-4.3-7.3-9.44.35-9.76,10.92Z"/>
    <path id="seeds-dark" class="cls-1" d="m71.94,98.51c-2.23.23-4.52-2.75-5.08-5.44-.04-.18-.83-4.28,1.5-5.75,2.15-1.35,5.79.26,7.06,2.82,1.65,3.33-.84,8.09-3.48,8.37Zm67.88,14.88c-1.26-2.55-4.91-4.17-7.06-2.82-2.33,1.46-1.54,5.56-1.5,5.75.56,2.69,2.85,5.67,5.08,5.44,2.64-.28,5.13-5.04,3.48-8.37Zm-19.07-7.01c-1.26-2.55-4.91-4.17-7.06-2.82-2.33,1.46-1.54,5.56-1.5,5.75.56,2.69,2.85,5.67,5.08,5.44,2.64-.28,5.13-5.04,3.48-8.37Zm-45.53,1.51c-1.26-2.55-4.91-4.17-7.06-2.82-2.33,1.46-1.54,5.56-1.5,5.75.56,2.69,2.85,5.67,5.08,5.44,2.64-.28,5.13-5.04,3.48-8.37Zm-13.24,8.18c-2.05-1.98-6.03-2.27-7.59-.28-1.7,2.16.42,5.75.52,5.92,1.43,2.35,4.59,4.38,6.61,3.42,2.39-1.15,3.14-6.47.46-9.05Zm24.71,6.76c-1.26-2.55-4.91-4.17-7.06-2.82-2.33,1.46-1.54,5.56-1.5,5.75.56,2.69,2.85,5.67,5.08,5.44,2.64-.28,5.13-5.04,3.48-8.37Zm18.7-2.4c-1.26-2.55-4.91-4.17-7.06-2.82-2.33,1.46-1.54,5.56-1.5,5.75.56,2.69,2.85,5.67,5.08,5.44,2.64-.28,5.13-5.04,3.48-8.37Zm42.34,5.99c-1.26-2.55-4.91-4.17-7.06-2.82-2.33,1.46-1.54,5.56-1.5,5.75.56,2.69,2.85,5.67,5.08,5.44,2.64-.28,5.13-5.04,3.48-8.37Zm-20.76,5.74c-1.26-2.55-4.91-4.17-7.06-2.82-2.33,1.46-1.54,5.56-1.5,5.75.56,2.69,2.85,5.67,5.08,5.44,2.64-.28,5.13-5.04,3.48-8.37Zm-12.76,7.01c-1.26-2.55-4.91-4.17-7.06-2.82-2.33,1.46-1.54,5.56-1.5,5.75.56,2.69,2.85,5.67,5.08,5.44,2.64-.28,5.13-5.04,3.48-8.37Zm-16.05,7.16c-1.26-2.55-4.91-4.17-7.06-2.82-2.33,1.46-1.54,5.56-1.5,5.75.56,2.69,2.85,5.67,5.08,5.44,2.64-.28,5.13-5.04,3.48-8.37Zm9.35-44.28c-1.26-2.55-4.91-4.17-7.06-2.82-2.33,1.46-1.54,5.56-1.5,5.75.56,2.69,2.85,5.67,5.08,5.44,2.64-.28,5.13-5.04,3.48-8.37Zm-13.97-5.84c-1.26-2.55-4.91-4.17-7.06-2.82-2.33,1.46-1.54,5.56-1.5,5.75.56,2.69,2.85,5.67,5.08,5.44,2.64-.28,5.13-5.04,3.48-8.37Zm7.22-14.59c-1.26-2.55-4.91-4.17-7.06-2.82-2.33,1.46-1.54,5.56-1.5,5.75.56,2.69,2.85,5.67,5.08,5.44,2.64-.28,5.13-5.04,3.48-8.37Zm24.11,9.01c-1.26-2.55-4.91-4.17-7.06-2.82-2.33,1.46-1.54,5.56-1.5,5.75.56,2.69,2.85,5.67,5.08,5.44,2.64-.28,5.13-5.04,3.48-8.37Zm24.43,5.84c-1.26-2.55-4.91-4.17-7.06-2.82-2.33,1.46-1.54,5.56-1.5,5.75.56,2.69,2.85,5.67,5.08,5.44,2.64-.28,5.13-5.04,3.48-8.37Zm-77.9,39.36c-1.26-2.55-4.91-4.17-7.06-2.82-2.33,1.46-1.54,5.56-1.5,5.75.56,2.69,2.85,5.67,5.08,5.44,2.64-.28,5.13-5.04,3.48-8.37Zm13.26,4.65c-1.26-2.55-4.91-4.17-7.06-2.82-2.33,1.46-1.54,5.56-1.5,5.75.56,2.69,2.85,5.67,5.08,5.44,2.64-.28,5.13-5.04,3.48-8.37Zm59.35,7.35c-1.26-2.55-4.91-4.17-7.06-2.82-2.33,1.46-1.54,5.56-1.5,5.75.56,2.69,2.85,5.67,5.08,5.44,2.64-.28,5.13-5.04,3.48-8.37Zm-14.52,1.99c-1.26-2.55-4.91-4.17-7.06-2.82-2.33,1.46-1.54,5.56-1.5,5.75.56,2.69,2.85,5.67,5.08,5.44,2.64-.28,5.13-5.04,3.48-8.37Zm-13.68,8.08c-1.26-2.55-4.91-4.17-7.06-2.82-2.33,1.46-1.54,5.56-1.5,5.75.56,2.69,2.85,5.67,5.08,5.44,2.64-.28,5.13-5.04,3.48-8.37Zm17.28,10.72c-1.26-2.55-4.91-4.17-7.06-2.82-2.33,1.46-1.54,5.56-1.5,5.75.56,2.69,2.85,5.67,5.08,5.44,2.64-.28,5.13-5.04,3.48-8.37Zm19.26-7.85c-1.26-2.55-4.91-4.17-7.06-2.82-2.33,1.46-1.54,5.56-1.5,5.75.56,2.69,2.85,5.67,5.08,5.44,2.64-.28,5.13-5.04,3.48-8.37Zm13.49,9.91c-1.26-2.55-4.91-4.17-7.06-2.82-2.33,1.46-1.54,5.56-1.5,5.75.56,2.69,2.85,5.67,5.08,5.44,2.64-.28,5.13-5.04,3.48-8.37Zm-20.16,8.67c-1.26-2.55-4.91-4.17-7.06-2.82-2.33,1.46-1.54,5.56-1.5,5.75.56,2.69,2.85,5.67,5.08,5.44,2.64-.28,5.13-5.04,3.48-8.37Zm-24.94,0c-1.26-2.55-4.91-4.17-7.06-2.82-2.33,1.46-1.54,5.56-1.5,5.75.56,2.69,2.85,5.67,5.08,5.44,2.64-.28,5.13-5.04,3.48-8.37Zm-68.05-31.52c-1.26-2.55-4.91-4.17-7.06-2.82-2.33,1.46-1.54,5.56-1.5,5.75.56,2.69,2.85,5.67,5.08,5.44,2.64-.28,5.13-5.04,3.48-8.37Zm23.32,9.15c-1.26-2.55-4.91-4.17-7.06-2.82-2.33,1.46-1.54,5.56-1.5,5.75.56,2.69,2.85,5.67,5.08,5.44,2.64-.28,5.13-5.04,3.48-8.37Zm12.76,11.3c-1.26-2.55-4.91-4.17-7.06-2.82-2.33,1.46-1.54,5.56-1.5,5.75.56,2.69,2.85,5.67,5.08,5.44,2.64-.28,5.13-5.04,3.48-8.37Zm18.73,4.23c-1.26-2.55-4.91-4.17-7.06-2.82-2.33,1.46-1.54,5.56-1.5,5.75.56,2.69,2.85,5.67,5.08,5.44,2.64-.28,5.13-5.04,3.48-8.37Zm-54.32-42.54c-1.26-2.55-4.91-4.17-7.06-2.82-2.33,1.46-1.54,5.56-1.5,5.75.56,2.69,2.85,5.67,5.08,5.44,2.64-.28,5.13-5.04,3.48-8.37Zm-14.72,26.09c-2.22-1.48-5.93-1.24-7.05.72-1.21,2.12,1.34,5.02,1.45,5.14,1.7,1.89,4.95,3.28,6.66,2.17,2.02-1.31,1.83-6.1-1.06-8.03Zm87.6-77.35c-1.13-2.17-4.22-3.62-5.97-2.55-1.9,1.16-1.13,4.6-1.09,4.76.54,2.26,2.53,4.82,4.39,4.68,2.19-.16,4.14-4.06,2.67-6.89Z"/>
    <path id="seeds" class="cls-9" d="m69.43,89.64s.58-.81,1.34-.78c1.4.04,2.85,2.72,2.36,5.02-.05.24-.4,1.89-1.19,1.98-1.36.16-3.88-4.26-2.51-6.22Zm21.21,12.12c.79-.1,1.14-1.74,1.19-1.98.49-2.3-.96-4.98-2.36-5.02-.76-.02-1.32.75-1.34.78-1.37,1.96,1.15,6.38,2.51,6.22Zm13.26,5.17c.79-.1,1.14-1.74,1.19-1.98.49-2.3-.96-4.98-2.36-5.02-.76-.02-1.32.75-1.34.78-1.37,1.96,1.15,6.38,2.51,6.22Zm-20.41,21.88c.79-.1,1.14-1.74,1.19-1.98.49-2.3-.96-4.98-2.36-5.02-.76-.02-1.32.75-1.34.78-1.37,1.96,1.15,6.38,2.51,6.22Zm-11.55-14.87c.79-.1,1.14-1.74,1.19-1.98.49-2.3-.96-4.98-2.36-5.02-.76-.02-1.32.75-1.34.78-1.37,1.96,1.15,6.38,2.51,6.22Zm49.66-17.26c.79-.1,1.14-1.74,1.19-1.98.49-2.3-.96-4.98-2.36-5.02-.76-.02-1.32.75-1.34.78-1.37,1.96,1.15,6.38,2.51,6.22Zm-60.01,25.77c.59-.54-.08-2.08-.17-2.31-.93-2.15-3.67-3.5-4.83-2.72-.64.42-.64,1.37-.64,1.42.02,2.39,4.63,4.54,5.65,3.61Zm84.44-20.69c.79-.1,1.14-1.74,1.19-1.98.49-2.3-.96-4.98-2.36-5.02-.76-.02-1.32.75-1.34.78-1.37,1.96,1.15,6.38,2.51,6.22Zm-1.79,29.43c.6-.07.87-1.31.91-1.49.37-1.73-.73-3.74-1.8-3.78-.58-.02-1,.56-1.02.59-1.04,1.47.87,4.8,1.91,4.68Zm-26.84-18.76c.79-.1,1.14-1.74,1.19-1.98.49-2.3-.96-4.98-2.36-5.02-.76-.02-1.32.75-1.34.78-1.37,1.96,1.15,6.38,2.51,6.22Zm-67.98,23.39c.79-.1,1.14-1.74,1.19-1.98.49-2.3-.96-4.98-2.36-5.02-.76-.02-1.32.75-1.34.78-1.37,1.96,1.15,6.38,2.51,6.22Zm18.7,5.9c.79-.1,1.14-1.74,1.19-1.98.49-2.3-.96-4.98-2.36-5.02-.76-.02-1.32.75-1.34.78-1.37,1.96,1.15,6.38,2.51,6.22Zm13.26,5.17c.79-.1,1.14-1.74,1.19-1.98.49-2.3-.96-4.98-2.36-5.02-.76-.02-1.32.75-1.34.78-1.37,1.96,1.15,6.38,2.51,6.22Zm-9.06,16.45c.79-.1,1.14-1.74,1.19-1.98.49-2.3-.96-4.98-2.36-5.02-.76-.02-1.32.75-1.34.78-1.37,1.96,1.15,6.38,2.51,6.22Zm-22.9-9.44c.79-.1,1.14-1.74,1.19-1.98.49-2.3-.96-4.98-2.36-5.02-.76-.02-1.32.75-1.34.78-1.37,1.96,1.15,6.38,2.51,6.22Zm51.76-27.72c.79-.1,1.14-1.74,1.19-1.98.49-2.3-.96-4.98-2.36-5.02-.76-.02-1.32.75-1.34.78-1.37,1.96,1.15,6.38,2.51,6.22Zm-62.11,36.23c.59-.54-.08-2.08-.17-2.31-.93-2.15-3.67-3.5-4.83-2.72-.64.42-.64,1.37-.64,1.42.02,2.39,4.63,4.54,5.65,3.61Zm84.44-25.2c.79-.1,1.14-1.74,1.19-1.98.49-2.3-.96-4.98-2.36-5.02-.76-.02-1.32.75-1.34.78-1.37,1.96,1.15,6.38,2.51,6.22Zm-11.17,27.61c.6-.07.87-1.31.91-1.49.37-1.73-.73-3.74-1.8-3.78-.58-.02-1,.56-1.02.59-1.04,1.47.87,4.8,1.91,4.68Zm-17.46-12.43c.79-.1,1.14-1.74,1.19-1.98.49-2.3-.96-4.98-2.36-5.02-.76-.02-1.32.75-1.34.78-1.37,1.96,1.15,6.38,2.51,6.22Zm45.85,1.51c.79-.1,1.14-1.74,1.19-1.98.49-2.3-.96-4.98-2.36-5.02-.76-.02-1.32.75-1.34.78-1.37,1.96,1.15,6.38,2.51,6.22Zm-55.23,20.46c.79-.1,1.14-1.74,1.19-1.98.49-2.3-.96-4.98-2.36-5.02-.76-.02-1.32.75-1.34.78-1.37,1.96,1.15,6.38,2.51,6.22Zm18.7,5.9c.79-.1,1.14-1.74,1.19-1.98.49-2.3-.96-4.98-2.36-5.02-.76-.02-1.32.75-1.34.78-1.37,1.96,1.15,6.38,2.51,6.22Zm13.26,5.17c.79-.1,1.14-1.74,1.19-1.98.49-2.3-.96-4.98-2.36-5.02-.76-.02-1.32.75-1.34.78-1.37,1.96,1.15,6.38,2.51,6.22Zm8.14-29.53c.79-.1,1.14-1.74,1.19-1.98.49-2.3-.96-4.98-2.36-5.02-.76-.02-1.32.75-1.34.78-1.37,1.96,1.15,6.38,2.51,6.22Zm-2.1-72.79c.79-.1,1.14-1.74,1.19-1.98.49-2.3-.96-4.98-2.36-5.02-.76-.02-1.32.75-1.34.78-1.37,1.96,1.15,6.38,2.51,6.22Zm6.3,91.26c.79-.1,1.14-1.74,1.19-1.98.49-2.3-.96-4.98-2.36-5.02-.76-.02-1.32.75-1.34.78-1.37,1.96,1.15,6.38,2.51,6.22Zm32.75.73c.79-.1,1.14-1.74,1.19-1.98.49-2.3-.96-4.98-2.36-5.02-.76-.02-1.32.75-1.34.78-1.37,1.96,1.15,6.38,2.51,6.22Zm-63.48-88.48c.79-.1,1.14-1.74,1.19-1.98.49-2.3-.96-4.98-2.36-5.02-.76-.02-1.32.75-1.34.78-1.37,1.96,1.15,6.38,2.51,6.22Zm37.45,32.84c.79-.1,1.14-1.74,1.19-1.98.49-2.3-.96-4.98-2.36-5.02-.76-.02-1.32.75-1.34.78-1.37,1.96,1.15,6.38,2.51,6.22Zm-25.6,25.96c.79-.1,1.14-1.74,1.19-1.98.49-2.3-.96-4.98-2.36-5.02-.76-.02-1.32.75-1.34.78-1.37,1.96,1.15,6.38,2.51,6.22Zm31.9,40.02c.79-.1,1.14-1.74,1.19-1.98.49-2.3-.96-4.98-2.36-5.02-.76-.02-1.32.75-1.34.78-1.37,1.96,1.15,6.38,2.51,6.22Zm5.29-18.58c.79-.1,1.14-1.74,1.19-1.98.49-2.3-.96-4.98-2.36-5.02-.76-.02-1.32.75-1.34.78-1.37,1.96,1.15,6.38,2.51,6.22Z"/>
  </g>
  <g id="leaf-2" data-name="leaf">
    <path class="cls-8" d="m229.88,37.69c-.23-.77-1.09-4.67-3.31-9.92-2.87-6.79-5.14-9-4.21-10.52,1.74-2.83,12.17.65,15.63,1.8,7.01,2.34,15.97,5.33,23.74,13.52,7.16,7.55,9.44,15.46,10.52,15.02,1.44-.58-6.63-13.2-2.4-25.84,1.15-3.44,3.07-6.44,3.31-12.02.27-6.24-1.85-8.97-.9-9.62,2.81-1.92,27.88,17.36,28.55,40.57.16,5.57-1.1,10.9.9,11.72,1.89.77,4.26-3.52,15.02-15.93,6.67-7.68,9.2-10,9.92-14.72.94-6.2-2.16-10.62-1.2-11.12,1.34-.7,9,7.18,12.32,18.03.52,1.7,5.87,20.05-3.61,31.25-2.92,3.45-5.85,4.57-5.41,6.31.79,3.12,10.26,0,24.04,4.21,7.86,2.4,11.75,5.53,17.13,3.61,4.41-1.58,6.22-5.28,6.91-4.81,1.12.77-1.94,11.58-10.52,17.73-6.45,4.63-14.09,5.22-20.43,5.71-8.42.65-13.93-.67-14.42.9-.62,1.95,7.2,6,7.81,6.31,2.95,1.51,17.3,8.85,32.15,3.91,3.58-1.19,5.87-2.66,6.61-1.8,1.22,1.4-2.29,8.45-8.11,10.82-4.7,1.91-6.49-1.02-12.62.6-5.41,1.43-6.06,4.24-10.82,5.11-4.27.78-8.14-.69-10.82-2.1-77.84-51.78-103.97-72.78-105.77-78.73Z"/>
    <path class="cls-5" d="m292.22,31.59c-2.16-5.21-5.49-9.83-8.78-14.4-3.91-5.42-7.81-10.84-11.72-16.26,2.16-1.44,4.95.42,6.85,2.18,6.77,6.26,13.7,12.75,17.62,21.1,3.67,7.82,5.69,18.83,4.74,27.42-5.34-2.71-6.56-14.86-8.71-20.04Z"/>
    <path class="cls-2" d="m329.34,30.47c.64,3.46-1.39,7.97-3.45,10.62-1.11,1.42-2.44,2.66-3.6,4.04-.94,1.12-1.76,2.34-2.75,3.42-3.38,3.67-8.71,5.69-10.73,10.25-.17.39-.35.82-.73,1.01-.54.26-1.17-.14-1.57-.59-2.12-2.38-1.43-6.29.56-8.78,1.99-2.49,4.93-3.99,7.64-5.67,3.88-2.42,7.66-5.74,8.55-10.22.26-1.3.26-2.66.61-3.94,1.03-3.71,4.81-3.73,5.48-.13Z"/>
    <path class="cls-3" d="m276.21,40.19c-2.11,1.99-4.81-.3-4.66-2.65.41-6.33.9-12.65,1.46-18.96.14-1.62.3-3.26.92-4.76.42-1.02,1.36-2.08,2.42-1.79.76.21,1.17,1.02,1.44,1.76,1.27,3.6,1.16,7.66-.3,11.18-.3.73-.66,1.44-.86,2.2-.25.95-.26,1.95-.24,2.93.03,2.22,1.55,8.46-.17,10.08Z"/>
    <path class="cls-5" d="m319.1,55.1c2.88-4.51,7.47-7.74,10.22-12.33,4.14-6.91,3.45-15.57,2.63-23.58,1.15-.85,2.29.88,2.95,2.15,8.01,15.45,6.4,33.08-5.35,47,4.08-3.93,10.71-3.57,16.01-1.59,5.3,1.99,10.09,5.31,15.57,6.71s12.34.16,14.96-4.85c1.6,3.87.32,8.49-2.3,11.75-2.63,3.26-6.4,5.39-10.24,7.08-9.53,4.2-20.03,6.19-30.43,5.78-.55-.02-1.15-.03-1.57.33-.22.19-.36.46-.44.74-.51,1.58.48,3.33,1.86,4.25s3.09,1.18,4.73,1.43c13.1,1.99,26.25,3.98,39.51,4.12-.62,3.88-4.29,6.59-8.02,7.81-3.73,1.22-7.75,1.4-11.49,2.61-2.68.86-5.16,2.24-7.82,3.17-3.06,1.08-6.29,1.56-9.51,2.03-2.06.3-4.26.58-6.12-.34-1.69-.84-2.79-2.51-3.8-4.11-5.84-9.24-12.89-19.71-14.1-30.87-.48-4.41-.59-9.17-.8-13.64-.26-5.42.6-11.01,3.57-15.65Z"/>
    <path class="cls-6" d="m239.38,33.46c-1.22,1.31-6.94,1.07-8.72,1.29-.4.05-.83.09-1.18-.11-.23-.14-.38-.36-.53-.58-2.95-4.44-4.65-9.69-4.88-15.01,2.96.13,5.73,1.41,8.41,2.66,1.54.72,3.13,1.48,4.2,2.81.68.85,1.1,1.87,1.51,2.88.66,1.59,2.63,4.53,1.2,6.07Z"/>
  </g>
  <g id="bstrawberry">
    <path class="cls-4" d="m240.4,197.04c-32.78,4.18-69.3,8.83-81.13-9.62-3.57-5.56-2.46-9.43,12.62-71.52,7.05-29,9.39-38.81,18.03-51.08,5.81-8.26,15.53-22.08,33.05-28.25,32.38-11.4,63.53,13.12,72.72,20.43,6.51,5.18,25.51,20.29,23.44,32.45-.29,1.73-1.64,7.08,1.2,10.22,2.05,2.26,5.18,2.15,6.61,2.4,9.26,1.62,20.38,30.76,13.82,51.08-10.46,32.42-64.9,39.35-100.37,43.87Z"/>
    <path id="shine-2" data-name="shine" class="cls-7" d="m258.12,47.61c-1.67,3.2-15.19-5.09-25.54.9-4.35,2.52-3.46,4.85-9.01,8.71-7.14,4.97-16.89,6.9-18.33,4.51-1.61-2.67,6.72-11.53,15.33-16.83,1.66-1.02,21.1-12.68,32.75-4.51,2.96,2.08,5.65,5.6,4.81,7.21Zm70.02,114.19c.16-4.47-9.58-10.35-16.53-8.41-5.05,1.41-5.74,6.15-10.22,12.02-11.65,15.27-33.6,18.02-36.36,18.33-11.93,1.34-19.42-2.15-28.55,3.91-.6.39-5.8,3.89-5.11,5.71,1.28,3.35,21.72-1.45,32.15-3.91,9.15-2.15,19.45-5.09,27.95-7.51,3.77-1.08,5.66-1.61,7.21-2.1,5.45-1.72,17.34-5.75,27.04-14.42,1.38-1.23,2.35-2.24,2.4-3.61Zm-47.18-47.78c2.62-7.58-1.03-17.19-4.51-17.73-1.7-.26-2.31,1.81-4.81,1.8-2.87,0-6.15-2.76-6.31-5.41-.29-4.9,10.17-8.28,9.62-9.62-.43-1.04-7.55-.77-12.62,3.61-3.69,3.18-5.26,7.64-6.61,7.21-1.12-.35-.62-3.59-1.8-3.91-1.15-.31-1.86,2.68-4.21,3.61-3.51,1.38-6.36-3.54-10.22-2.7-2.57.55-.15,7.62-6.31,7.81-17.98.55-17.91,2.44-9.92,10.52,2.51,2.53,3.06,4.29,3.91,10.22.62,4.34-.78,6.93.3,7.51,1.9,1.03,5.93-7.17,11.12-6.61,3.04.33,5.4,3.56,6.31,6.01,1.57,4.21-1.09,6.19-.6,11.72.35,3.94,4.84,7.51,6.31,11.42,5.12,13.58,9.49,14.21,13.22-4.51.91-4.58,6.36-3.07,7.81-2.1,2.06,1.38.44,5.46,2.1,6.31,1.8.92,6.22-2.59,8.41-6.91.17-.33,3.62-7.39.6-14.12-1.56-3.48-3.68-4.25-3.91-7.51-.19-2.7,1.14-3.83,2.1-6.61Zm-66.71,42.97c-1.57,2.67-5.09-.74-6.61-2.7-2.68-3.45-.15-9.39-.9-9.62-.95-.29-3.21,9.92-7.81,10.52-3.26.42-6.25-4.16-6.91-3.61-.67.56,3.35,4.52,3.61,10.22.12,2.54-.45,6.9-3,8.11-2.7,1.28-5.36.6-8.41-1.5-3.89-2.69-5.83.58-7.51,10.22-.85,4.85-2.98,7.28-1.5,9.32,1.76,2.41,6.43,2.8,8.71.9,1.94-1.62.72-3.71,2.4-7.51,1.49-3.38,4.95-7.39,9.01-7.81,2.31-.24,7.76-3.5,9.32,3.31,4.13,18.04,6.19,13.32,8.11,2.4.99-5.62,14.28-3.1,14.12-8.11-.41-13.67-7.06-23.57-12.62-14.12Z"/>
    <path id="seeds-dark-2" data-name="seeds-dark" class="cls-1" d="m280.74,65.43c1.64-3.3,6.35-5.39,9.12-3.64,3.01,1.89,1.99,7.19,1.94,7.43-.72,3.48-3.68,7.33-6.56,7.03-3.41-.36-6.63-6.51-4.5-10.82Zm-78.78,40.88c2.88.3,5.85-3.55,6.56-7.03.05-.24,1.07-5.54-1.94-7.43-2.77-1.75-7.49.34-9.12,3.64-2.13,4.31,1.09,10.47,4.5,10.82Zm24.66-9.06c2.88.3,5.85-3.55,6.56-7.03.05-.24,1.07-5.54-1.94-7.43-2.77-1.75-7.49.34-9.12,3.64-2.13,4.31,1.09,10.47,4.5,10.82Zm58.88,1.95c2.88.3,5.85-3.55,6.56-7.03.05-.24,1.07-5.54-1.94-7.43-2.77-1.75-7.49.34-9.12,3.64-2.13,4.31,1.09,10.47,4.5,10.82Zm13.22,11.46c2.61,1.25,6.7-1.38,8.55-4.42.13-.21,2.87-4.85.68-7.65-2.03-2.58-7.17-2.2-9.82.36-3.46,3.34-2.49,10.22.6,11.7Zm-28.06,7.86c2.88.3,5.85-3.55,6.56-7.03.05-.24,1.07-5.54-1.94-7.43-2.77-1.75-7.49.34-9.12,3.64-2.13,4.31,1.09,10.47,4.5,10.82Zm-24.18-3.1c2.88.3,5.85-3.55,6.56-7.03.05-.24,1.07-5.54-1.94-7.43-2.77-1.75-7.49.34-9.12,3.64-2.13,4.31,1.09,10.47,4.5,10.82Zm-54.75,7.75c2.88.3,5.85-3.55,6.56-7.03.05-.24,1.07-5.54-1.94-7.43-2.77-1.75-7.49.34-9.12,3.64-2.13,4.31,1.09,10.47,4.5,10.82Zm26.84,7.42c2.88.3,5.85-3.55,6.56-7.03.05-.24,1.07-5.54-1.94-7.43-2.77-1.75-7.49.34-9.12,3.64-2.13,4.31,1.09,10.47,4.5,10.82Zm16.5,9.06c2.88.3,5.85-3.55,6.56-7.03.05-.24,1.07-5.54-1.94-7.43-2.77-1.75-7.49.34-9.12,3.64-2.13,4.31,1.09,10.47,4.5,10.82Zm20.76,9.26c2.88.3,5.85-3.55,6.56-7.03.05-.24,1.07-5.54-1.94-7.43-2.77-1.75-7.49.34-9.12,3.64-2.13,4.31,1.09,10.47,4.5,10.82Zm-12.09-57.26c2.88.3,5.85-3.55,6.56-7.03.05-.24,1.07-5.54-1.94-7.43-2.77-1.75-7.49.34-9.12,3.64-2.13,4.31,1.09,10.47,4.5,10.82Zm18.07-7.56c2.88.3,5.85-3.55,6.56-7.03.05-.24,1.07-5.54-1.94-7.43-2.77-1.75-7.49.34-9.12,3.64-2.13,4.31,1.09,10.47,4.5,10.82Zm-9.34-18.86c2.88.3,5.85-3.55,6.56-7.03.05-.24,1.07-5.54-1.94-7.43-2.77-1.75-7.49.34-9.12,3.64-2.13,4.31,1.09,10.47,4.5,10.82Zm-31.17,11.66c2.88.3,5.85-3.55,6.56-7.03.05-.24,1.07-5.54-1.94-7.43-2.77-1.75-7.49.34-9.12,3.64-2.13,4.31,1.09,10.47,4.5,10.82Zm-31.59,7.56c2.88.3,5.85-3.55,6.56-7.03.05-.24,1.07-5.54-1.94-7.43-2.77-1.75-7.49.34-9.12,3.64-2.13,4.31,1.09,10.47,4.5,10.82Zm100.74,50.9c2.88.3,5.85-3.55,6.56-7.03.05-.24,1.07-5.54-1.94-7.43-2.77-1.75-7.49.34-9.12,3.64-2.13,4.31,1.09,10.47,4.5,10.82Zm-17.15,6.01c2.88.3,5.85-3.55,6.56-7.03.05-.24,1.07-5.54-1.94-7.43-2.77-1.75-7.49.34-9.12,3.64-2.13,4.31,1.09,10.47,4.5,10.82Zm-76.75,9.51c2.88.3,5.85-3.55,6.56-7.03.05-.24,1.07-5.54-1.94-7.43-2.77-1.75-7.49.34-9.12,3.64-2.13,4.31,1.09,10.47,4.5,10.82Zm18.77,2.58c2.88.3,5.85-3.55,6.56-7.03.05-.24,1.07-5.54-1.94-7.43-2.77-1.75-7.49.34-9.12,3.64-2.13,4.31,1.09,10.47,4.5,10.82Zm17.7,10.44c2.88.3,5.85-3.55,6.56-7.03.05-.24,1.07-5.54-1.94-7.43-2.77-1.75-7.49.34-9.12,3.64-2.13,4.31,1.09,10.47,4.5,10.82Zm-22.34,13.87c2.88.3,5.85-3.55,6.56-7.03.05-.24,1.07-5.54-1.94-7.43-2.77-1.75-7.49.34-9.12,3.64-2.13,4.31,1.09,10.47,4.5,10.82Zm-24.91-10.15c2.88.3,5.85-3.55,6.56-7.03.05-.24,1.07-5.54-1.94-7.43-2.77-1.75-7.49.34-9.12,3.64-2.13,4.31,1.09,10.47,4.5,10.82Zm-17.45,12.81c2.88.3,5.85-3.55,6.56-7.03.05-.24,1.07-5.54-1.94-7.43-2.77-1.75-7.49.34-9.12,3.64-2.13,4.31,1.09,10.47,4.5,10.82Zm26.07,11.21c2.88.3,5.85-3.55,6.56-7.03.05-.24,1.07-5.54-1.94-7.43-2.77-1.75-7.49.34-9.12,3.64-2.13,4.31,1.09,10.47,4.5,10.82Zm32.24,0c2.88.3,5.85-3.55,6.56-7.03.05-.24,1.07-5.54-1.94-7.43-2.77-1.75-7.49.34-9.12,3.64-2.13,4.31,1.09,10.47,4.5,10.82Zm87.99-40.76c2.88.3,5.85-3.55,6.56-7.03.05-.24,1.07-5.54-1.94-7.43-2.77-1.75-7.49.34-9.12,3.64-2.13,4.31,1.09,10.47,4.5,10.82Zm-30.16,11.84c2.88.3,5.85-3.55,6.56-7.03.05-.24,1.07-5.54-1.94-7.43-2.77-1.75-7.49.34-9.12,3.64-2.13,4.31,1.09,10.47,4.5,10.82Zm-16.51,14.62c2.88.3,5.85-3.55,6.56-7.03.05-.24,1.07-5.54-1.94-7.43-2.77-1.75-7.49.34-9.12,3.64-2.13,4.31,1.09,10.47,4.5,10.82Zm-24.22,5.48c2.88.3,5.85-3.55,6.56-7.03.05-.24,1.07-5.54-1.94-7.43-2.77-1.75-7.49.34-9.12,3.64-2.13,4.31,1.09,10.47,4.5,10.82Zm70.24-55.01c2.88.3,5.85-3.55,6.56-7.03.05-.24,1.07-5.54-1.94-7.43-2.77-1.75-7.49.34-9.12,3.64-2.13,4.31,1.09,10.47,4.5,10.82Zm13.17,33.3c2.21,1.44,6.41-.36,8.61-2.81.15-.17,3.45-3.91,1.88-6.65-1.45-2.53-6.25-2.85-9.12-.93-3.74,2.5-3.98,8.69-1.37,10.39Zm-108.46-101.49c2.4.17,4.98-3.13,5.67-6.06.05-.2,1.05-4.65-1.41-6.15-2.27-1.38-6.26.49-7.72,3.3-1.9,3.66.62,8.71,3.45,8.91Z"/>
    <path id="seeds-2" data-name="seeds" class="cls-9" d="m285.24,72.82c-1.03-.12-1.48-2.25-1.54-2.56-.63-2.97,1.25-6.44,3.05-6.49.99-.03,1.7.96,1.74,1.01,1.77,2.53-1.48,8.25-3.25,8.04Zm-20.93-.42s-.75-1.04-1.74-1.01c-1.81.06-3.68,3.52-3.05,6.49.07.31.52,2.44,1.54,2.56,1.76.21,5.02-5.51,3.25-8.04Zm-17.15,6.68s-.75-1.04-1.74-1.01c-1.81.06-3.68,3.52-3.05,6.49.07.31.52,2.44,1.54,2.56,1.76.21,5.02-5.51,3.25-8.04Zm26.4,28.29s-.75-1.04-1.74-1.01c-1.81.06-3.68,3.52-3.05,6.49.07.31.52,2.44,1.54,2.56,1.76.21,5.02-5.51,3.25-8.04Zm14.93-19.23s-.75-1.04-1.74-1.01c-1.81.06-3.68,3.52-3.05,6.49.07.31.52,2.44,1.54,2.56,1.76.21,5.02-5.51,3.25-8.04Zm-64.22-22.32s-.75-1.04-1.74-1.01c-1.81.06-3.68,3.52-3.05,6.49.07.31.52,2.44,1.54,2.56,1.76.21,5.02-5.51,3.25-8.04Zm81.66,36.69c0-.06,0-1.28-.83-1.83-1.51-1-5.04.74-6.25,3.52-.13.29-.99,2.29-.23,2.98,1.31,1.19,7.28-1.59,7.31-4.67Zm-113.25-30.12s-.75-1.04-1.74-1.01c-1.81.06-3.68,3.52-3.05,6.49.07.31.52,2.44,1.54,2.56,1.76.21,5.02-5.51,3.25-8.04Zm1.54,40.04s-.57-.78-1.32-.76c-1.37.04-2.8,2.65-2.32,4.88.05.23.39,1.83,1.17,1.93,1.34.16,3.82-4.15,2.47-6.05Zm35.48-26.26s-.75-1.04-1.74-1.01c-1.81.06-3.68,3.52-3.05,6.49.07.31.52,2.44,1.54,2.56,1.76.21,5.02-5.51,3.25-8.04Zm87.9,30.25s-.75-1.04-1.74-1.01c-1.81.06-3.68,3.52-3.05,6.49.07.31.52,2.44,1.54,2.56,1.76.21,5.02-5.51,3.25-8.04Zm-24.18,7.63s-.75-1.04-1.74-1.01c-1.81.06-3.68,3.52-3.05,6.49.07.31.52,2.44,1.54,2.56,1.76.21,5.02-5.51,3.25-8.04Zm-17.15,6.68s-.75-1.04-1.74-1.01c-1.81.06-3.68,3.52-3.05,6.49.07.31.52,2.44,1.54,2.56,1.76.21,5.02-5.51,3.25-8.04Zm11.72,21.27s-.75-1.04-1.74-1.01c-1.81.06-3.68,3.52-3.05,6.49.07.31.52,2.44,1.54,2.56,1.76.21,5.02-5.51,3.25-8.04Zm29.61-12.2s-.75-1.04-1.74-1.01c-1.81.06-3.68,3.52-3.05,6.49.07.31.52,2.44,1.54,2.56,1.76.21,5.02-5.51,3.25-8.04Zm-66.93-35.85s-.75-1.04-1.74-1.01c-1.81.06-3.68,3.52-3.05,6.49.07.31.52,2.44,1.54,2.56,1.76.21,5.02-5.51,3.25-8.04Zm84.37,50.22c0-.06,0-1.28-.83-1.83-1.51-1-5.04.74-6.25,3.52-.13.29-.99,2.29-.23,2.98,1.31,1.19,7.28-1.59,7.31-4.67Zm-113.25-35.96s-.75-1.04-1.74-1.01c-1.81.06-3.68,3.52-3.05,6.49.07.31.52,2.44,1.54,2.56,1.76.21,5.02-5.51,3.25-8.04Zm13.67,37.69s-.57-.78-1.32-.76c-1.37.04-2.8,2.65-2.32,4.88.05.23.39,1.83,1.17,1.93,1.34.16,3.82-4.15,2.47-6.05Zm23.35-18.07s-.75-1.04-1.74-1.01c-1.81.06-3.68,3.52-3.05,6.49.07.31.52,2.44,1.54,2.56,1.76.21,5.02-5.51,3.25-8.04Zm-59.29,1.95s-.75-1.04-1.74-1.01c-1.81.06-3.68,3.52-3.05,6.49.07.31.52,2.44,1.54,2.56,1.76.21,5.02-5.51,3.25-8.04Zm71.41,26.45s-.75-1.04-1.74-1.01c-1.81.06-3.68,3.52-3.05,6.49.07.31.52,2.44,1.54,2.56,1.76.21,5.02-5.51,3.25-8.04Zm-24.18,7.63s-.75-1.04-1.74-1.01c-1.81.06-3.68,3.52-3.05,6.49.07.31.52,2.44,1.54,2.56,1.76.21,5.02-5.51,3.25-8.04Zm-17.15,6.68s-.75-1.04-1.74-1.01c-1.81.06-3.68,3.52-3.05,6.49.07.31.52,2.44,1.54,2.56,1.76.21,5.02-5.51,3.25-8.04Zm-10.53-38.18s-.75-1.04-1.74-1.01c-1.81.06-3.68,3.52-3.05,6.49.07.31.52,2.44,1.54,2.56,1.76.21,5.02-5.51,3.25-8.04Zm2.71-94.13s-.75-1.04-1.74-1.01c-1.81.06-3.68,3.52-3.05,6.49.07.31.52,2.44,1.54,2.56,1.76.21,5.02-5.51,3.25-8.04Zm-8.14,118.01s-.75-1.04-1.74-1.01c-1.81.06-3.68,3.52-3.05,6.49.07.31.52,2.44,1.54,2.56,1.76.21,5.02-5.51,3.25-8.04Zm-42.35.94s-.75-1.04-1.74-1.01c-1.81.06-3.68,3.52-3.05,6.49.07.31.52,2.44,1.54,2.56,1.76.21,5.02-5.51,3.25-8.04Zm82.09-114.42s-.75-1.04-1.74-1.01c-1.81.06-3.68,3.52-3.05,6.49.07.31.52,2.44,1.54,2.56,1.76.21,5.02-5.51,3.25-8.04Zm-48.43,42.47s-.75-1.04-1.74-1.01c-1.81.06-3.68,3.52-3.05,6.49.07.31.52,2.44,1.54,2.56,1.76.21,5.02-5.51,3.25-8.04Zm33.1,33.56s-.75-1.04-1.74-1.01c-1.81.06-3.68,3.52-3.05,6.49.07.31.52,2.44,1.54,2.56,1.76.21,5.02-5.51,3.25-8.04Zm-41.24,51.75s-.75-1.04-1.74-1.01c-1.81.06-3.68,3.52-3.05,6.49.07.31.52,2.44,1.54,2.56,1.76.21,5.02-5.51,3.25-8.04Zm-6.84-24.02s-.75-1.04-1.74-1.01c-1.81.06-3.68,3.52-3.05,6.49.07.31.52,2.44,1.54,2.56,1.76.21,5.02-5.51,3.25-8.04Z"/>
  </g>
</svg>